%TF.GenerationSoftware,KiCad,Pcbnew,8.0.2*%
%TF.CreationDate,2024-06-03T19:44:42-07:00*%
%TF.ProjectId,SNES_USB_C_power,534e4553-5f55-4534-925f-435f706f7765,A*%
%TF.SameCoordinates,Original*%
%TF.FileFunction,Drillmap*%
%TF.FilePolarity,Positive*%
%FSLAX45Y45*%
G04 Gerber Fmt 4.5, Leading zero omitted, Abs format (unit mm)*
G04 Created by KiCad (PCBNEW 8.0.2) date 2024-06-03 19:44:42*
%MOMM*%
%LPD*%
G01*
G04 APERTURE LIST*
%ADD10C,0.050000*%
%ADD11C,0.200000*%
G04 APERTURE END LIST*
D10*
X14171200Y-9489350D02*
X17651000Y-9489350D01*
X17651000Y-12715150D01*
X14171200Y-12715150D01*
X14171200Y-9489350D01*
D11*
X14429477Y-13029134D02*
X14429477Y-12829134D01*
X14429477Y-12829134D02*
X14477096Y-12829134D01*
X14477096Y-12829134D02*
X14505667Y-12838658D01*
X14505667Y-12838658D02*
X14524715Y-12857705D01*
X14524715Y-12857705D02*
X14534239Y-12876753D01*
X14534239Y-12876753D02*
X14543762Y-12914848D01*
X14543762Y-12914848D02*
X14543762Y-12943419D01*
X14543762Y-12943419D02*
X14534239Y-12981515D01*
X14534239Y-12981515D02*
X14524715Y-13000562D01*
X14524715Y-13000562D02*
X14505667Y-13019610D01*
X14505667Y-13019610D02*
X14477096Y-13029134D01*
X14477096Y-13029134D02*
X14429477Y-13029134D01*
X14629477Y-13029134D02*
X14629477Y-12895800D01*
X14629477Y-12933896D02*
X14639001Y-12914848D01*
X14639001Y-12914848D02*
X14648524Y-12905324D01*
X14648524Y-12905324D02*
X14667572Y-12895800D01*
X14667572Y-12895800D02*
X14686620Y-12895800D01*
X14753286Y-13029134D02*
X14753286Y-12895800D01*
X14753286Y-12829134D02*
X14743762Y-12838658D01*
X14743762Y-12838658D02*
X14753286Y-12848181D01*
X14753286Y-12848181D02*
X14762810Y-12838658D01*
X14762810Y-12838658D02*
X14753286Y-12829134D01*
X14753286Y-12829134D02*
X14753286Y-12848181D01*
X14877096Y-13029134D02*
X14858048Y-13019610D01*
X14858048Y-13019610D02*
X14848524Y-13000562D01*
X14848524Y-13000562D02*
X14848524Y-12829134D01*
X14981858Y-13029134D02*
X14962810Y-13019610D01*
X14962810Y-13019610D02*
X14953286Y-13000562D01*
X14953286Y-13000562D02*
X14953286Y-12829134D01*
X15210429Y-13029134D02*
X15210429Y-12829134D01*
X15210429Y-12829134D02*
X15277096Y-12971991D01*
X15277096Y-12971991D02*
X15343762Y-12829134D01*
X15343762Y-12829134D02*
X15343762Y-13029134D01*
X15524715Y-13029134D02*
X15524715Y-12924372D01*
X15524715Y-12924372D02*
X15515191Y-12905324D01*
X15515191Y-12905324D02*
X15496143Y-12895800D01*
X15496143Y-12895800D02*
X15458048Y-12895800D01*
X15458048Y-12895800D02*
X15439001Y-12905324D01*
X15524715Y-13019610D02*
X15505667Y-13029134D01*
X15505667Y-13029134D02*
X15458048Y-13029134D01*
X15458048Y-13029134D02*
X15439001Y-13019610D01*
X15439001Y-13019610D02*
X15429477Y-13000562D01*
X15429477Y-13000562D02*
X15429477Y-12981515D01*
X15429477Y-12981515D02*
X15439001Y-12962467D01*
X15439001Y-12962467D02*
X15458048Y-12952943D01*
X15458048Y-12952943D02*
X15505667Y-12952943D01*
X15505667Y-12952943D02*
X15524715Y-12943419D01*
X15619953Y-12895800D02*
X15619953Y-13095800D01*
X15619953Y-12905324D02*
X15639001Y-12895800D01*
X15639001Y-12895800D02*
X15677096Y-12895800D01*
X15677096Y-12895800D02*
X15696143Y-12905324D01*
X15696143Y-12905324D02*
X15705667Y-12914848D01*
X15705667Y-12914848D02*
X15715191Y-12933896D01*
X15715191Y-12933896D02*
X15715191Y-12991038D01*
X15715191Y-12991038D02*
X15705667Y-13010086D01*
X15705667Y-13010086D02*
X15696143Y-13019610D01*
X15696143Y-13019610D02*
X15677096Y-13029134D01*
X15677096Y-13029134D02*
X15639001Y-13029134D01*
X15639001Y-13029134D02*
X15619953Y-13019610D01*
X15800905Y-13010086D02*
X15810429Y-13019610D01*
X15810429Y-13019610D02*
X15800905Y-13029134D01*
X15800905Y-13029134D02*
X15791382Y-13019610D01*
X15791382Y-13019610D02*
X15800905Y-13010086D01*
X15800905Y-13010086D02*
X15800905Y-13029134D01*
X15800905Y-12905324D02*
X15810429Y-12914848D01*
X15810429Y-12914848D02*
X15800905Y-12924372D01*
X15800905Y-12924372D02*
X15791382Y-12914848D01*
X15791382Y-12914848D02*
X15800905Y-12905324D01*
X15800905Y-12905324D02*
X15800905Y-12924372D01*
M02*
