M48
; DRILL file {KiCad 8.0.2} date 2024-06-03T19:44:42-0700
; FORMAT={-:-/ absolute / metric / decimal}
; #@! TF.CreationDate,2024-06-03T19:44:42-07:00
; #@! TF.GenerationSoftware,Kicad,Pcbnew,8.0.2
; #@! TF.FileFunction,Plated,1,2,PTH
FMAT,2
METRIC
; #@! TA.AperFunction,Plated,PTH,ViaDrill
T1C0.400
; #@! TA.AperFunction,Plated,PTH,ComponentDrill
T2C0.500
; #@! TA.AperFunction,Plated,PTH,ComponentDrill
T3C0.600
; #@! TA.AperFunction,Plated,PTH,ComponentDrill
T4C0.800
; #@! TA.AperFunction,Plated,PTH,ComponentDrill
T5C1.000
; #@! TA.AperFunction,Plated,PTH,ComponentDrill
T6C3.200
%
G90
G05
T1
X148.844Y-120.142
X150.856Y-113.181
X150.876Y-105.918
X152.38Y-114.197
X153.396Y-119.531
X153.396Y-123.341
X153.65Y-107.34
X156.444Y-109.879
X156.444Y-110.895
X156.972Y-103.124
X157.801Y-111.374
X158.984Y-114.959
X159.258Y-103.124
X160.508Y-114.959
X164.318Y-109.879
X164.318Y-111.149
X167.366Y-120.801
X167.894Y-107.696
X168.382Y-115.125
X169.652Y-110.641
X169.926Y-115.316
X171.196Y-111.76
T2
X143.396Y-99.06
X143.396Y-123.19
X144.099Y-97.363
X144.099Y-100.757
X144.099Y-121.493
X144.099Y-124.887
X145.796Y-96.66
X145.796Y-101.46
X145.796Y-120.79
X145.796Y-125.59
X147.493Y-97.363
X147.493Y-100.757
X147.493Y-121.493
X147.493Y-124.887
X148.196Y-99.06
X148.196Y-123.19
X170.066Y-99.06
X170.066Y-123.19
X170.769Y-97.363
X170.769Y-100.757
X170.769Y-121.493
X170.769Y-124.887
X172.466Y-96.66
X172.466Y-101.46
X172.466Y-120.79
X172.466Y-125.59
X174.163Y-97.363
X174.163Y-100.757
X174.163Y-121.493
X174.163Y-124.887
X174.866Y-99.06
X174.866Y-123.19
T4
X158.491Y-117.006
X158.491Y-124.626
X161.031Y-117.006
X161.031Y-124.626
X163.571Y-117.006
X163.571Y-124.626
T5
X173.99Y-108.453
X173.99Y-110.993
T6
X145.796Y-99.06
X145.796Y-123.19
X172.466Y-99.06
X172.466Y-123.19
T3
X145.08Y-105.559G85X144.48Y-105.559
G05
X145.08Y-114.2G85X144.48Y-114.2
G05
X148.88Y-105.559G85X148.28Y-105.559
G05
X148.88Y-114.2G85X148.28Y-114.2
G05
M30
