G04 #@! TF.GenerationSoftware,KiCad,Pcbnew,8.0.2*
G04 #@! TF.CreationDate,2024-06-03T19:44:32-07:00*
G04 #@! TF.ProjectId,SNES_USB_C_power,534e4553-5f55-4534-925f-435f706f7765,A*
G04 #@! TF.SameCoordinates,Original*
G04 #@! TF.FileFunction,Soldermask,Bot*
G04 #@! TF.FilePolarity,Negative*
%FSLAX46Y46*%
G04 Gerber Fmt 4.6, Leading zero omitted, Abs format (unit mm)*
G04 Created by KiCad (PCBNEW 8.0.2) date 2024-06-03 19:44:32*
%MOMM*%
%LPD*%
G01*
G04 APERTURE LIST*
%ADD10C,0.800000*%
%ADD11C,6.400000*%
%ADD12R,1.700000X1.700000*%
%ADD13O,1.700000X1.700000*%
%ADD14O,1.700000X1.100000*%
%ADD15R,1.600000X2.400000*%
%ADD16O,1.600000X2.400000*%
G04 APERTURE END LIST*
D10*
X170066000Y-99060000D03*
X170768944Y-97362944D03*
X170768944Y-100757056D03*
X172466000Y-96660000D03*
D11*
X172466000Y-99060000D03*
D10*
X172466000Y-101460000D03*
X174163056Y-97362944D03*
X174163056Y-100757056D03*
X174866000Y-99060000D03*
X170066000Y-123190000D03*
X170768944Y-121492944D03*
X170768944Y-124887056D03*
X172466000Y-120790000D03*
D11*
X172466000Y-123190000D03*
D10*
X172466000Y-125590000D03*
X174163056Y-121492944D03*
X174163056Y-124887056D03*
X174866000Y-123190000D03*
X143396000Y-123190000D03*
X144098944Y-121492944D03*
X144098944Y-124887056D03*
X145796000Y-120790000D03*
D11*
X145796000Y-123190000D03*
D10*
X145796000Y-125590000D03*
X147493056Y-121492944D03*
X147493056Y-124887056D03*
X148196000Y-123190000D03*
X143396000Y-99060000D03*
X144098944Y-97362944D03*
X144098944Y-100757056D03*
X145796000Y-96660000D03*
D11*
X145796000Y-99060000D03*
D10*
X145796000Y-101460000D03*
X147493056Y-97362944D03*
X147493056Y-100757056D03*
X148196000Y-99060000D03*
D12*
X173990000Y-108453000D03*
D13*
X173990000Y-110993000D03*
D14*
X148580000Y-105559500D03*
X144780000Y-105559500D03*
X148580000Y-114199500D03*
X144780000Y-114199500D03*
D15*
X158491000Y-124626500D03*
D16*
X161031000Y-124626500D03*
X163571000Y-124626500D03*
X163571000Y-117006500D03*
X161031000Y-117006500D03*
X158491000Y-117006500D03*
M02*
