G04 #@! TF.GenerationSoftware,KiCad,Pcbnew,8.0.2*
G04 #@! TF.CreationDate,2024-06-03T19:44:32-07:00*
G04 #@! TF.ProjectId,SNES_USB_C_power,534e4553-5f55-4534-925f-435f706f7765,A*
G04 #@! TF.SameCoordinates,Original*
G04 #@! TF.FileFunction,Copper,L1,Top*
G04 #@! TF.FilePolarity,Positive*
%FSLAX46Y46*%
G04 Gerber Fmt 4.6, Leading zero omitted, Abs format (unit mm)*
G04 Created by KiCad (PCBNEW 8.0.2) date 2024-06-03 19:44:32*
%MOMM*%
%LPD*%
G01*
G04 APERTURE LIST*
G04 Aperture macros list*
%AMRoundRect*
0 Rectangle with rounded corners*
0 $1 Rounding radius*
0 $2 $3 $4 $5 $6 $7 $8 $9 X,Y pos of 4 corners*
0 Add a 4 corners polygon primitive as box body*
4,1,4,$2,$3,$4,$5,$6,$7,$8,$9,$2,$3,0*
0 Add four circle primitives for the rounded corners*
1,1,$1+$1,$2,$3*
1,1,$1+$1,$4,$5*
1,1,$1+$1,$6,$7*
1,1,$1+$1,$8,$9*
0 Add four rect primitives between the rounded corners*
20,1,$1+$1,$2,$3,$4,$5,0*
20,1,$1+$1,$4,$5,$6,$7,0*
20,1,$1+$1,$6,$7,$8,$9,0*
20,1,$1+$1,$8,$9,$2,$3,0*%
G04 Aperture macros list end*
G04 #@! TA.AperFunction,SMDPad,CuDef*
%ADD10RoundRect,0.218750X-0.218750X-0.256250X0.218750X-0.256250X0.218750X0.256250X-0.218750X0.256250X0*%
G04 #@! TD*
G04 #@! TA.AperFunction,ComponentPad*
%ADD11C,0.800000*%
G04 #@! TD*
G04 #@! TA.AperFunction,ComponentPad*
%ADD12C,6.400000*%
G04 #@! TD*
G04 #@! TA.AperFunction,ComponentPad*
%ADD13R,1.700000X1.700000*%
G04 #@! TD*
G04 #@! TA.AperFunction,ComponentPad*
%ADD14O,1.700000X1.700000*%
G04 #@! TD*
G04 #@! TA.AperFunction,SMDPad,CuDef*
%ADD15RoundRect,0.237500X0.237500X-0.250000X0.237500X0.250000X-0.237500X0.250000X-0.237500X-0.250000X0*%
G04 #@! TD*
G04 #@! TA.AperFunction,SMDPad,CuDef*
%ADD16RoundRect,0.175000X-0.685000X0.175000X-0.685000X-0.175000X0.685000X-0.175000X0.685000X0.175000X0*%
G04 #@! TD*
G04 #@! TA.AperFunction,SMDPad,CuDef*
%ADD17RoundRect,0.190000X-0.670000X0.190000X-0.670000X-0.190000X0.670000X-0.190000X0.670000X0.190000X0*%
G04 #@! TD*
G04 #@! TA.AperFunction,SMDPad,CuDef*
%ADD18RoundRect,0.200000X-0.660000X0.200000X-0.660000X-0.200000X0.660000X-0.200000X0.660000X0.200000X0*%
G04 #@! TD*
G04 #@! TA.AperFunction,ComponentPad*
%ADD19O,1.700000X1.100000*%
G04 #@! TD*
G04 #@! TA.AperFunction,SMDPad,CuDef*
%ADD20RoundRect,0.237500X-0.237500X0.250000X-0.237500X-0.250000X0.237500X-0.250000X0.237500X0.250000X0*%
G04 #@! TD*
G04 #@! TA.AperFunction,SMDPad,CuDef*
%ADD21RoundRect,0.237500X-0.250000X-0.237500X0.250000X-0.237500X0.250000X0.237500X-0.250000X0.237500X0*%
G04 #@! TD*
G04 #@! TA.AperFunction,SMDPad,CuDef*
%ADD22RoundRect,0.062500X-0.350000X-0.062500X0.350000X-0.062500X0.350000X0.062500X-0.350000X0.062500X0*%
G04 #@! TD*
G04 #@! TA.AperFunction,SMDPad,CuDef*
%ADD23RoundRect,0.062500X-0.062500X-0.350000X0.062500X-0.350000X0.062500X0.350000X-0.062500X0.350000X0*%
G04 #@! TD*
G04 #@! TA.AperFunction,HeatsinkPad*
%ADD24R,2.700000X2.700000*%
G04 #@! TD*
G04 #@! TA.AperFunction,SMDPad,CuDef*
%ADD25RoundRect,0.237500X-0.300000X-0.237500X0.300000X-0.237500X0.300000X0.237500X-0.300000X0.237500X0*%
G04 #@! TD*
G04 #@! TA.AperFunction,SMDPad,CuDef*
%ADD26RoundRect,0.250000X-0.337500X-1.450000X0.337500X-1.450000X0.337500X1.450000X-0.337500X1.450000X0*%
G04 #@! TD*
G04 #@! TA.AperFunction,SMDPad,CuDef*
%ADD27R,0.650000X0.500000*%
G04 #@! TD*
G04 #@! TA.AperFunction,SMDPad,CuDef*
%ADD28R,4.120000X4.600000*%
G04 #@! TD*
G04 #@! TA.AperFunction,SMDPad,CuDef*
%ADD29R,0.550000X0.500000*%
G04 #@! TD*
G04 #@! TA.AperFunction,ComponentPad*
%ADD30R,1.600000X2.400000*%
G04 #@! TD*
G04 #@! TA.AperFunction,ComponentPad*
%ADD31O,1.600000X2.400000*%
G04 #@! TD*
G04 #@! TA.AperFunction,ViaPad*
%ADD32C,0.800000*%
G04 #@! TD*
G04 #@! TA.AperFunction,Conductor*
%ADD33C,0.250000*%
G04 #@! TD*
G04 #@! TA.AperFunction,Conductor*
%ADD34C,0.500000*%
G04 #@! TD*
G04 #@! TA.AperFunction,Conductor*
%ADD35C,0.400000*%
G04 #@! TD*
G04 APERTURE END LIST*
D10*
X150317000Y-120650000D03*
X151892000Y-120650000D03*
D11*
X170066000Y-99060000D03*
X170768944Y-97362944D03*
X170768944Y-100757056D03*
X172466000Y-96660000D03*
D12*
X172466000Y-99060000D03*
D11*
X172466000Y-101460000D03*
X174163056Y-97362944D03*
X174163056Y-100757056D03*
X174866000Y-99060000D03*
X170066000Y-123190000D03*
X170768944Y-121492944D03*
X170768944Y-124887056D03*
X172466000Y-120790000D03*
D12*
X172466000Y-123190000D03*
D11*
X172466000Y-125590000D03*
X174163056Y-121492944D03*
X174163056Y-124887056D03*
X174866000Y-123190000D03*
X143396000Y-123190000D03*
X144098944Y-121492944D03*
X144098944Y-124887056D03*
X145796000Y-120790000D03*
D12*
X145796000Y-123190000D03*
D11*
X145796000Y-125590000D03*
X147493056Y-121492944D03*
X147493056Y-124887056D03*
X148196000Y-123190000D03*
X143396000Y-99060000D03*
X144098944Y-97362944D03*
X144098944Y-100757056D03*
X145796000Y-96660000D03*
D12*
X145796000Y-99060000D03*
D11*
X145796000Y-101460000D03*
X147493056Y-97362944D03*
X147493056Y-100757056D03*
X148196000Y-99060000D03*
D13*
X173990000Y-108453000D03*
D14*
X173990000Y-110993000D03*
D15*
X152380000Y-112720500D03*
X152380000Y-110895500D03*
D16*
X148920000Y-109379500D03*
D17*
X148920000Y-111399500D03*
D18*
X148920000Y-112629500D03*
D16*
X148920000Y-110379500D03*
D17*
X148920000Y-108359500D03*
D18*
X148920000Y-107129500D03*
D19*
X148580000Y-105559500D03*
X144780000Y-105559500D03*
X148580000Y-114199500D03*
X144780000Y-114199500D03*
D20*
X152380000Y-107443000D03*
X152380000Y-109268000D03*
D21*
X155023500Y-112927500D03*
X156848500Y-112927500D03*
D15*
X167366000Y-119428000D03*
X167366000Y-117603000D03*
D22*
X159053500Y-110407500D03*
X159053500Y-110907500D03*
X159053500Y-111407500D03*
X159053500Y-111907500D03*
X159053500Y-112407500D03*
X159053500Y-112907500D03*
D23*
X159766000Y-113620000D03*
X160266000Y-113620000D03*
X160766000Y-113620000D03*
X161266000Y-113620000D03*
X161766000Y-113620000D03*
X162266000Y-113620000D03*
D22*
X162978500Y-112907500D03*
X162978500Y-112407500D03*
X162978500Y-111907500D03*
X162978500Y-111407500D03*
X162978500Y-110907500D03*
X162978500Y-110407500D03*
D23*
X162266000Y-109695000D03*
X161766000Y-109695000D03*
X161266000Y-109695000D03*
X160766000Y-109695000D03*
X160266000Y-109695000D03*
X159766000Y-109695000D03*
D24*
X161016000Y-111657500D03*
D15*
X171196000Y-110283000D03*
X171196000Y-108458000D03*
D25*
X166503500Y-113689500D03*
X168228500Y-113689500D03*
X166503500Y-110641500D03*
X168228500Y-110641500D03*
D26*
X156547000Y-105815500D03*
X158222000Y-105815500D03*
D27*
X160374000Y-97875000D03*
X160374000Y-99145000D03*
X160374000Y-100415000D03*
X160374000Y-101685000D03*
D28*
X163589000Y-99780000D03*
D29*
X165924000Y-97875000D03*
X165924000Y-99145000D03*
X165924000Y-100415000D03*
X165924000Y-101685000D03*
D15*
X171450000Y-115466500D03*
X171450000Y-113641500D03*
X154920000Y-123238000D03*
X154920000Y-121413000D03*
D30*
X158491000Y-124626500D03*
D31*
X161031000Y-124626500D03*
X163571000Y-124626500D03*
X163571000Y-117006500D03*
X161031000Y-117006500D03*
X158491000Y-117006500D03*
D25*
X164725500Y-107593500D03*
X166450500Y-107593500D03*
D15*
X161270000Y-106474000D03*
X161270000Y-104649000D03*
X154920000Y-119428000D03*
X154920000Y-117603000D03*
D27*
X152754000Y-97875000D03*
X152754000Y-99145000D03*
X152754000Y-100415000D03*
X152754000Y-101685000D03*
D28*
X155969000Y-99780000D03*
D29*
X158304000Y-97875000D03*
X158304000Y-99145000D03*
X158304000Y-100415000D03*
X158304000Y-101685000D03*
D32*
X148844000Y-120142000D03*
X171196000Y-111760000D03*
X159258000Y-103124000D03*
X156972000Y-103124000D03*
X153396000Y-119531500D03*
X157801000Y-111374500D03*
X169926000Y-115316000D03*
X153396000Y-123341500D03*
X152380000Y-114197500D03*
X167366000Y-120801500D03*
X169652000Y-110641500D03*
X153650000Y-107339500D03*
X150856000Y-113181500D03*
X167894000Y-107696000D03*
X168382000Y-115125500D03*
X150876000Y-105918000D03*
X156444000Y-109879500D03*
X164318000Y-109879500D03*
X164318000Y-111149500D03*
X156444000Y-110895500D03*
X158984000Y-114959500D03*
X160508000Y-114959500D03*
D33*
X151892000Y-120650000D02*
X151892000Y-116059000D01*
X151892000Y-116059000D02*
X155023500Y-112927500D01*
D34*
X149352000Y-120650000D02*
X148844000Y-120142000D01*
X150317000Y-120650000D02*
X149352000Y-120650000D01*
X171196000Y-111760000D02*
X171196000Y-110283000D01*
X165924000Y-101685000D02*
X171196000Y-106957000D01*
X171196000Y-106957000D02*
X171196000Y-108458000D01*
X171196000Y-108458000D02*
X173985000Y-108458000D01*
X165924000Y-101685000D02*
X165924000Y-103701500D01*
X165924000Y-103701500D02*
X161736750Y-107888750D01*
D33*
X159258000Y-103124000D02*
X159258000Y-102801000D01*
X159258000Y-102801000D02*
X160374000Y-101685000D01*
X152754000Y-101685000D02*
X154193000Y-103124000D01*
X154193000Y-103124000D02*
X156972000Y-103124000D01*
X159258000Y-103124000D02*
X160783000Y-104649000D01*
X160783000Y-104649000D02*
X161270000Y-104649000D01*
D34*
X158222000Y-105815500D02*
X158222000Y-101767000D01*
X158222000Y-101767000D02*
X158304000Y-101685000D01*
X153546500Y-107443000D02*
X153650000Y-107339500D01*
X170076500Y-115466500D02*
X169926000Y-115316000D01*
X149918500Y-107129500D02*
X148920000Y-107129500D01*
D33*
X159053500Y-111407500D02*
X160766000Y-111407500D01*
D34*
X148920000Y-112629500D02*
X150304000Y-112629500D01*
D33*
X158342000Y-111407500D02*
X159053500Y-111407500D01*
D34*
X157801000Y-111374500D02*
X158309000Y-111374500D01*
X153396000Y-123341500D02*
X154816500Y-123341500D01*
X157834000Y-111407500D02*
X157801000Y-111374500D01*
X150876000Y-106172000D02*
X149918500Y-107129500D01*
X150876000Y-105918000D02*
X150876000Y-106172000D01*
X167791500Y-107593500D02*
X167894000Y-107696000D01*
X167366000Y-119428000D02*
X167366000Y-120801500D01*
X168228500Y-110641500D02*
X169652000Y-110641500D01*
X168228500Y-113689500D02*
X168228500Y-114972000D01*
X152380000Y-107443000D02*
X153546500Y-107443000D01*
X150304000Y-112629500D02*
X150856000Y-113181500D01*
X168228500Y-114972000D02*
X168382000Y-115125500D01*
X166450500Y-107593500D02*
X167791500Y-107593500D01*
X154816500Y-119531500D02*
X153396000Y-119531500D01*
X152380000Y-112720500D02*
X152380000Y-114197500D01*
X171450000Y-115466500D02*
X170076500Y-115466500D01*
D33*
X162978500Y-111907500D02*
X165237500Y-111907500D01*
X165237500Y-111907500D02*
X166503500Y-110641500D01*
D34*
X168128000Y-116483500D02*
X168636000Y-116991500D01*
X166503500Y-115807082D02*
X167179918Y-116483500D01*
X166503500Y-113689500D02*
X166503500Y-115807082D01*
X163240000Y-113620000D02*
X166434000Y-113620000D01*
D35*
X163240000Y-113620000D02*
X163215000Y-113595000D01*
D34*
X168636000Y-116991500D02*
X168636000Y-124103500D01*
D35*
X162316000Y-113595000D02*
X162291000Y-113620000D01*
D34*
X163571000Y-124626500D02*
X158491000Y-124626500D01*
D35*
X163215000Y-113595000D02*
X162316000Y-113595000D01*
D34*
X168636000Y-124103500D02*
X168113000Y-124626500D01*
X167179918Y-116483500D02*
X168128000Y-116483500D01*
X168113000Y-124626500D02*
X163571000Y-124626500D01*
X152754000Y-97875000D02*
X152754000Y-97327000D01*
X158977000Y-96478000D02*
X160374000Y-97875000D01*
X153603000Y-96478000D02*
X158977000Y-96478000D01*
X152754000Y-97327000D02*
X153603000Y-96478000D01*
X152754000Y-97875000D02*
X152754000Y-100415000D01*
X160374000Y-97875000D02*
X160374000Y-100415000D01*
D33*
X161036000Y-108712000D02*
X160766000Y-108982000D01*
D34*
X165924000Y-97875000D02*
X165924000Y-101685000D01*
D33*
X160766000Y-108982000D02*
X160766000Y-109695000D01*
D34*
X161036000Y-108589500D02*
X161736750Y-107888750D01*
X161736750Y-107888750D02*
X160841000Y-108784500D01*
D33*
X155832500Y-109268000D02*
X152380000Y-109268000D01*
X164318000Y-109980499D02*
X164318000Y-109879500D01*
X163390999Y-110907500D02*
X164318000Y-109980499D01*
X156444000Y-109879500D02*
X155832500Y-109268000D01*
X162978500Y-110907500D02*
X163390999Y-110907500D01*
X148920000Y-109379500D02*
X152268500Y-109379500D01*
X148920000Y-110379500D02*
X151864000Y-110379500D01*
X156444000Y-110895500D02*
X152380000Y-110895500D01*
X164060000Y-111407500D02*
X164318000Y-111149500D01*
X151864000Y-110379500D02*
X152380000Y-110895500D01*
X162978500Y-111407500D02*
X164060000Y-111407500D01*
X160357500Y-106474000D02*
X160266000Y-106565500D01*
X160266000Y-106565500D02*
X160266000Y-109695000D01*
X161270000Y-106474000D02*
X160357500Y-106474000D01*
X156848500Y-112927500D02*
X159033500Y-112927500D01*
X159033500Y-112927500D02*
X159053500Y-112907500D01*
X155366000Y-117006500D02*
X158491000Y-117006500D01*
X158491000Y-115452500D02*
X158984000Y-114959500D01*
X154769500Y-117603000D02*
X155366000Y-117006500D01*
X160766000Y-114701500D02*
X160766000Y-113620000D01*
X158491000Y-117006500D02*
X158491000Y-115452500D01*
X160508000Y-114959500D02*
X160766000Y-114701500D01*
X160150500Y-121413000D02*
X161031000Y-120532500D01*
X154920000Y-121413000D02*
X160150500Y-121413000D01*
X161031000Y-120532500D02*
X161031000Y-117006500D01*
X159766000Y-115741500D02*
X159766000Y-113620000D01*
X161031000Y-117006500D02*
X159766000Y-115741500D01*
X163586000Y-117006500D02*
X166769500Y-117006500D01*
X166769500Y-117006500D02*
X167366000Y-117603000D01*
X163571000Y-117006500D02*
X161766000Y-115201500D01*
X161766000Y-115201500D02*
X161766000Y-113620000D01*
X165080000Y-112419500D02*
X170228000Y-112419500D01*
X170228000Y-112419500D02*
X171450000Y-113641500D01*
X164592000Y-112907500D02*
X165080000Y-112419500D01*
X162978500Y-112907500D02*
X164592000Y-112907500D01*
D34*
X163048000Y-107593500D02*
X164725500Y-107593500D01*
D33*
X161766000Y-108875500D02*
X161766000Y-109695000D01*
D34*
X161766000Y-108875500D02*
X163048000Y-107593500D01*
D35*
X157226000Y-108712000D02*
X158896500Y-110382500D01*
D34*
X147804000Y-108359500D02*
X148920000Y-108359500D01*
X148060000Y-111399500D02*
X147610000Y-110949500D01*
X156547000Y-105815500D02*
X152380000Y-105815500D01*
X147610000Y-108553500D02*
X147804000Y-108359500D01*
X156547000Y-108033000D02*
X156547000Y-105815500D01*
X158623000Y-110109000D02*
X157226000Y-108712000D01*
X149836000Y-108359500D02*
X148920000Y-108359500D01*
X148920000Y-111399500D02*
X148060000Y-111399500D01*
X152380000Y-105815500D02*
X149836000Y-108359500D01*
X147610000Y-110949500D02*
X147610000Y-108553500D01*
X157226000Y-108712000D02*
X156547000Y-108033000D01*
D33*
X159766000Y-109137500D02*
X159766000Y-109695000D01*
D34*
X158304000Y-101685000D02*
X158304000Y-97875000D01*
D33*
X159619000Y-108990500D02*
X159766000Y-109137500D01*
D34*
X158222000Y-107593500D02*
X159619000Y-108990500D01*
X158222000Y-105815500D02*
X158222000Y-107593500D01*
G04 #@! TA.AperFunction,Conductor*
G36*
X166092039Y-97616185D02*
G01*
X166137794Y-97668989D01*
X166149000Y-97720500D01*
X166149000Y-101790500D01*
X166129315Y-101857539D01*
X166076511Y-101903294D01*
X166025000Y-101914500D01*
X165003000Y-101914500D01*
X164935961Y-101894815D01*
X164890206Y-101842011D01*
X164879000Y-101790500D01*
X164879000Y-97720500D01*
X164898685Y-97653461D01*
X164951489Y-97607706D01*
X165003000Y-97596500D01*
X166025000Y-97596500D01*
X166092039Y-97616185D01*
G37*
G04 #@! TD.AperFunction*
G04 #@! TA.AperFunction,Conductor*
G36*
X158472039Y-97616185D02*
G01*
X158517794Y-97668989D01*
X158529000Y-97720500D01*
X158529000Y-101790500D01*
X158509315Y-101857539D01*
X158456511Y-101903294D01*
X158405000Y-101914500D01*
X157383000Y-101914500D01*
X157315961Y-101894815D01*
X157270206Y-101842011D01*
X157259000Y-101790500D01*
X157259000Y-97720500D01*
X157278685Y-97653461D01*
X157331489Y-97607706D01*
X157383000Y-97596500D01*
X158405000Y-97596500D01*
X158472039Y-97616185D01*
G37*
G04 #@! TD.AperFunction*
G04 #@! TA.AperFunction,Conductor*
G36*
X152018149Y-119740927D02*
G01*
X152020270Y-119743829D01*
X152308475Y-120301573D01*
X152309229Y-120310496D01*
X152305446Y-120316035D01*
X151899365Y-120645033D01*
X151890780Y-120647578D01*
X151884635Y-120645033D01*
X151478553Y-120316035D01*
X151474282Y-120308164D01*
X151475523Y-120301576D01*
X151763730Y-119743829D01*
X151770572Y-119738052D01*
X151774124Y-119737500D01*
X152009876Y-119737500D01*
X152018149Y-119740927D01*
G37*
G04 #@! TD.AperFunction*
G04 #@! TA.AperFunction,Conductor*
G36*
X155019446Y-112925003D02*
G01*
X155025983Y-112931121D01*
X155026145Y-112931496D01*
X155215826Y-113391762D01*
X155215810Y-113400717D01*
X155209548Y-113407004D01*
X154372817Y-113759157D01*
X154363862Y-113759208D01*
X154360005Y-113756646D01*
X154194309Y-113590950D01*
X154190882Y-113582677D01*
X154191765Y-113578218D01*
X154268636Y-113391762D01*
X154531678Y-112753730D01*
X154538000Y-112747388D01*
X154546610Y-112747238D01*
X155019446Y-112925003D01*
G37*
G04 #@! TD.AperFunction*
G04 #@! TA.AperFunction,Conductor*
G36*
X149212721Y-119992978D02*
G01*
X149218548Y-119998262D01*
X149432195Y-120397412D01*
X149433580Y-120402933D01*
X149433580Y-120880676D01*
X149430153Y-120888949D01*
X149421880Y-120892376D01*
X149416457Y-120891043D01*
X148700386Y-120516499D01*
X148694644Y-120509628D01*
X148694989Y-120501680D01*
X148737896Y-120397412D01*
X148841147Y-120146501D01*
X148847464Y-120140156D01*
X148847467Y-120140154D01*
X149203767Y-119992969D01*
X149212721Y-119992978D01*
G37*
G04 #@! TD.AperFunction*
G04 #@! TA.AperFunction,Conductor*
G36*
X149984287Y-120215797D02*
G01*
X149988470Y-120219213D01*
X150312561Y-120642891D01*
X150314866Y-120651545D01*
X150312561Y-120657109D01*
X149988470Y-121080786D01*
X149980722Y-121085275D01*
X149975348Y-121084733D01*
X149449871Y-120902726D01*
X149443175Y-120896780D01*
X149442000Y-120891670D01*
X149442000Y-120408329D01*
X149445427Y-120400056D01*
X149449868Y-120397274D01*
X149975349Y-120215266D01*
X149984287Y-120215797D01*
G37*
G04 #@! TD.AperFunction*
G04 #@! TA.AperFunction,Conductor*
G36*
X171203007Y-110287243D02*
G01*
X171646163Y-110618830D01*
X171650735Y-110626530D01*
X171650255Y-110631893D01*
X171448665Y-111237495D01*
X171442801Y-111244263D01*
X171437564Y-111245500D01*
X170954436Y-111245500D01*
X170946163Y-111242073D01*
X170943335Y-111237495D01*
X170741744Y-110631893D01*
X170742382Y-110622961D01*
X170745833Y-110618833D01*
X171188991Y-110287243D01*
X171197668Y-110285031D01*
X171203007Y-110287243D01*
G37*
G04 #@! TD.AperFunction*
G04 #@! TA.AperFunction,Conductor*
G36*
X171444563Y-110963427D02*
G01*
X171447790Y-110969544D01*
X171593408Y-111746179D01*
X171591564Y-111754942D01*
X171584064Y-111759835D01*
X171581937Y-111760035D01*
X171196029Y-111760999D01*
X171195971Y-111760999D01*
X170810062Y-111760035D01*
X170801797Y-111756587D01*
X170798391Y-111748306D01*
X170798591Y-111746179D01*
X170944210Y-110969544D01*
X170949103Y-110962044D01*
X170955710Y-110960000D01*
X171436290Y-110960000D01*
X171444563Y-110963427D01*
G37*
G04 #@! TD.AperFunction*
G04 #@! TA.AperFunction,Conductor*
G36*
X171445837Y-107498927D02*
G01*
X171448665Y-107503505D01*
X171650255Y-108109106D01*
X171649617Y-108118038D01*
X171646163Y-108122169D01*
X171203009Y-108453755D01*
X171194332Y-108455968D01*
X171188991Y-108453755D01*
X170745836Y-108122169D01*
X170741264Y-108114469D01*
X170741744Y-108109106D01*
X170943335Y-107503505D01*
X170949199Y-107496737D01*
X170954436Y-107495500D01*
X171437564Y-107495500D01*
X171445837Y-107498927D01*
G37*
G04 #@! TD.AperFunction*
G04 #@! TA.AperFunction,Conductor*
G36*
X173146981Y-107612450D02*
G01*
X173742754Y-108205774D01*
X173982688Y-108444722D01*
X173986132Y-108452988D01*
X173982722Y-108461268D01*
X173982700Y-108461290D01*
X173146941Y-109296067D01*
X173138666Y-109299489D01*
X173131963Y-109297374D01*
X172294990Y-108711493D01*
X172290178Y-108703941D01*
X172290000Y-108701908D01*
X172290000Y-108214047D01*
X172293427Y-108205774D01*
X172294929Y-108204506D01*
X173131961Y-107611195D01*
X173140691Y-107609207D01*
X173146981Y-107612450D01*
G37*
G04 #@! TD.AperFunction*
G04 #@! TA.AperFunction,Conductor*
G36*
X171532754Y-107991532D02*
G01*
X172138195Y-108205244D01*
X172144855Y-108211229D01*
X172146000Y-108216277D01*
X172146000Y-108699722D01*
X172142573Y-108707995D01*
X172138194Y-108710755D01*
X171532758Y-108924466D01*
X171523816Y-108923988D01*
X171519287Y-108920153D01*
X171199715Y-108464720D01*
X171197768Y-108455980D01*
X171199715Y-108451280D01*
X171519288Y-107995845D01*
X171526844Y-107991042D01*
X171532754Y-107991532D01*
G37*
G04 #@! TD.AperFunction*
G04 #@! TA.AperFunction,Conductor*
G36*
X160367589Y-101683684D02*
G01*
X160375540Y-101687803D01*
X160377417Y-101690900D01*
X160473737Y-101925698D01*
X160473706Y-101934653D01*
X160468932Y-101940172D01*
X160043445Y-102195465D01*
X160034587Y-102196783D01*
X160029152Y-102193705D01*
X159864889Y-102029442D01*
X159861462Y-102021169D01*
X159862773Y-102015788D01*
X160045404Y-101663383D01*
X160052252Y-101657616D01*
X160056783Y-101657111D01*
X160367589Y-101683684D01*
G37*
G04 #@! TD.AperFunction*
G04 #@! TA.AperFunction,Conductor*
G36*
X159524433Y-102373298D02*
G01*
X159689730Y-102538595D01*
X159693157Y-102546868D01*
X159693135Y-102547580D01*
X159658668Y-103113031D01*
X159654744Y-103121080D01*
X159647011Y-103124019D01*
X159262168Y-103124698D01*
X159253889Y-103121286D01*
X158983939Y-102849983D01*
X158980533Y-102841702D01*
X158983981Y-102833437D01*
X158984501Y-102832949D01*
X159508441Y-102372779D01*
X159516917Y-102369895D01*
X159524433Y-102373298D01*
G37*
G04 #@! TD.AperFunction*
G04 #@! TA.AperFunction,Conductor*
G36*
X153079746Y-101659820D02*
G01*
X153082596Y-101663385D01*
X153265225Y-102015786D01*
X153265989Y-102024708D01*
X153263110Y-102029442D01*
X153098847Y-102193705D01*
X153090574Y-102197132D01*
X153084555Y-102195465D01*
X152659067Y-101940172D01*
X152653736Y-101932977D01*
X152654261Y-101925700D01*
X152750583Y-101690898D01*
X152756893Y-101684547D01*
X152760406Y-101683684D01*
X153071213Y-101657111D01*
X153079746Y-101659820D01*
G37*
G04 #@! TD.AperFunction*
G04 #@! TA.AperFunction,Conductor*
G36*
X156817294Y-102758728D02*
G01*
X156823280Y-102764890D01*
X156971123Y-103119498D01*
X156971144Y-103128452D01*
X156971123Y-103128502D01*
X156823280Y-103483109D01*
X156816933Y-103489427D01*
X156808344Y-103489551D01*
X156179563Y-103251858D01*
X156173036Y-103245727D01*
X156172000Y-103240914D01*
X156172000Y-103007085D01*
X156175427Y-102998812D01*
X156179563Y-102996141D01*
X156808345Y-102758448D01*
X156817294Y-102758728D01*
G37*
G04 #@! TD.AperFunction*
G04 #@! TA.AperFunction,Conductor*
G36*
X159626044Y-102975253D02*
G01*
X159632206Y-102981239D01*
X159908747Y-103593928D01*
X159909027Y-103602878D01*
X159906356Y-103607014D01*
X159741014Y-103772356D01*
X159732741Y-103775783D01*
X159727928Y-103774747D01*
X159115239Y-103498206D01*
X159109108Y-103491679D01*
X159109232Y-103483090D01*
X159255437Y-103127802D01*
X159261753Y-103121457D01*
X159617090Y-102975232D01*
X159626044Y-102975253D01*
G37*
G04 #@! TD.AperFunction*
G04 #@! TA.AperFunction,Conductor*
G36*
X161032719Y-104164931D02*
G01*
X161036250Y-104169187D01*
X161266352Y-104640782D01*
X161266900Y-104649720D01*
X161262610Y-104655454D01*
X160819514Y-104969997D01*
X160810784Y-104971991D01*
X160803526Y-104967665D01*
X160373604Y-104418155D01*
X160371205Y-104409528D01*
X160374545Y-104402674D01*
X160541259Y-104235960D01*
X160547828Y-104232659D01*
X161024037Y-104162742D01*
X161032719Y-104164931D01*
G37*
G04 #@! TD.AperFunction*
G04 #@! TA.AperFunction,Conductor*
G36*
X158472563Y-103531427D02*
G01*
X158475041Y-103535084D01*
X158788632Y-104265548D01*
X158788863Y-104274200D01*
X158232982Y-105786620D01*
X158226911Y-105793203D01*
X158217964Y-105793566D01*
X158211381Y-105787495D01*
X158211018Y-105786620D01*
X158048404Y-105344189D01*
X157655136Y-104274198D01*
X157655366Y-104265550D01*
X157968959Y-103535084D01*
X157975371Y-103528834D01*
X157979710Y-103528000D01*
X158464290Y-103528000D01*
X158472563Y-103531427D01*
G37*
G04 #@! TD.AperFunction*
G04 #@! TA.AperFunction,Conductor*
G36*
X149922548Y-106767363D02*
G01*
X149929535Y-106770719D01*
X150269133Y-107110317D01*
X150272560Y-107118590D01*
X150269133Y-107126863D01*
X150266468Y-107128859D01*
X149769898Y-107400038D01*
X149760994Y-107400995D01*
X149760707Y-107400907D01*
X148943693Y-107138057D01*
X148936867Y-107132261D01*
X148936138Y-107123336D01*
X148941208Y-107116915D01*
X149576602Y-106731560D01*
X149583949Y-106729936D01*
X149922548Y-106767363D01*
G37*
G04 #@! TD.AperFunction*
G04 #@! TA.AperFunction,Conductor*
G36*
X150171218Y-112377238D02*
G01*
X150178375Y-112382619D01*
X150180000Y-112388568D01*
X150180000Y-112870431D01*
X150176573Y-112878704D01*
X150171217Y-112881761D01*
X149660885Y-113013156D01*
X149652556Y-113012199D01*
X149396673Y-112878704D01*
X148938881Y-112639872D01*
X148933132Y-112633008D01*
X148933921Y-112624088D01*
X148938880Y-112619128D01*
X149652558Y-112246799D01*
X149660883Y-112245843D01*
X150171218Y-112377238D01*
G37*
G04 #@! TD.AperFunction*
G04 #@! TA.AperFunction,Conductor*
G36*
X158301035Y-111121817D02*
G01*
X158307781Y-111127706D01*
X158309000Y-111132905D01*
X158309000Y-111616094D01*
X158305573Y-111624367D01*
X158301035Y-111627182D01*
X157964409Y-111740570D01*
X157955475Y-111739963D01*
X157949875Y-111733984D01*
X157801875Y-111378999D01*
X157801855Y-111370050D01*
X157949876Y-111015013D01*
X157956222Y-111008697D01*
X157964407Y-111008429D01*
X158301035Y-111121817D01*
G37*
G04 #@! TD.AperFunction*
G04 #@! TA.AperFunction,Conductor*
G36*
X154548494Y-122808287D02*
G01*
X154915928Y-123232149D01*
X154918757Y-123240645D01*
X154917597Y-123244955D01*
X154686415Y-123717496D01*
X154679701Y-123723421D01*
X154673742Y-123723852D01*
X153979537Y-123593293D01*
X153972040Y-123588396D01*
X153970000Y-123581795D01*
X153970000Y-123098688D01*
X153973427Y-123090415D01*
X153976409Y-123088251D01*
X154534366Y-122805513D01*
X154543293Y-122804832D01*
X154548494Y-122808287D01*
G37*
G04 #@! TD.AperFunction*
G04 #@! TA.AperFunction,Conductor*
G36*
X153409817Y-122944090D02*
G01*
X154186457Y-123089710D01*
X154193956Y-123094603D01*
X154196000Y-123101210D01*
X154196000Y-123581789D01*
X154192573Y-123590062D01*
X154186456Y-123593289D01*
X153409820Y-123738908D01*
X153401057Y-123737064D01*
X153396164Y-123729564D01*
X153395964Y-123727446D01*
X153395000Y-123341500D01*
X153395964Y-122955559D01*
X153399412Y-122947297D01*
X153407693Y-122943891D01*
X153409817Y-122944090D01*
G37*
G04 #@! TD.AperFunction*
G04 #@! TA.AperFunction,Conductor*
G36*
X150518023Y-105769690D02*
G01*
X150800405Y-105885893D01*
X150874527Y-105916396D01*
X150878369Y-105918964D01*
X151150929Y-106192889D01*
X151154335Y-106201170D01*
X151151227Y-106209082D01*
X150656416Y-106744458D01*
X150648284Y-106748208D01*
X150639883Y-106745109D01*
X150639551Y-106744790D01*
X150299719Y-106404958D01*
X150296292Y-106396685D01*
X150296893Y-106392982D01*
X150502483Y-105776809D01*
X150508352Y-105770048D01*
X150517284Y-105769415D01*
X150518023Y-105769690D01*
G37*
G04 #@! TD.AperFunction*
G04 #@! TA.AperFunction,Conductor*
G36*
X167373007Y-119432243D02*
G01*
X167816163Y-119763830D01*
X167820735Y-119771530D01*
X167820255Y-119776893D01*
X167618665Y-120382495D01*
X167612801Y-120389263D01*
X167607564Y-120390500D01*
X167124436Y-120390500D01*
X167116163Y-120387073D01*
X167113335Y-120382495D01*
X166911744Y-119776893D01*
X166912382Y-119767961D01*
X166915833Y-119763833D01*
X167358991Y-119432243D01*
X167367668Y-119430031D01*
X167373007Y-119432243D01*
G37*
G04 #@! TD.AperFunction*
G04 #@! TA.AperFunction,Conductor*
G36*
X167614563Y-120004927D02*
G01*
X167617790Y-120011044D01*
X167763408Y-120787679D01*
X167761564Y-120796442D01*
X167754064Y-120801335D01*
X167751937Y-120801535D01*
X167366029Y-120802499D01*
X167365971Y-120802499D01*
X166980062Y-120801535D01*
X166971797Y-120798087D01*
X166968391Y-120789806D01*
X166968591Y-120787679D01*
X167114210Y-120011044D01*
X167119103Y-120003544D01*
X167125710Y-120001500D01*
X167606290Y-120001500D01*
X167614563Y-120004927D01*
G37*
G04 #@! TD.AperFunction*
G04 #@! TA.AperFunction,Conductor*
G36*
X168626842Y-110187060D02*
G01*
X169232995Y-110388835D01*
X169239763Y-110394699D01*
X169241000Y-110399936D01*
X169241000Y-110883063D01*
X169237573Y-110891336D01*
X169232995Y-110894164D01*
X168626845Y-111095938D01*
X168617913Y-111095300D01*
X168614269Y-111092454D01*
X168441917Y-110891500D01*
X168234031Y-110649115D01*
X168231247Y-110640606D01*
X168234031Y-110633884D01*
X168614271Y-110190543D01*
X168622256Y-110186496D01*
X168626842Y-110187060D01*
G37*
G04 #@! TD.AperFunction*
G04 #@! TA.AperFunction,Conductor*
G36*
X169646942Y-110245935D02*
G01*
X169651835Y-110253435D01*
X169652035Y-110255562D01*
X169653000Y-110641500D01*
X169653000Y-110641558D01*
X169652035Y-111027437D01*
X169648587Y-111035702D01*
X169640306Y-111039108D01*
X169638179Y-111038908D01*
X168861544Y-110893289D01*
X168854044Y-110888396D01*
X168852000Y-110881789D01*
X168852000Y-110401210D01*
X168855427Y-110392937D01*
X168861542Y-110389710D01*
X169638180Y-110244091D01*
X169646942Y-110245935D01*
G37*
G04 #@! TD.AperFunction*
G04 #@! TA.AperFunction,Conductor*
G36*
X168235991Y-113694743D02*
G01*
X168696939Y-114078900D01*
X168701100Y-114086829D01*
X168700291Y-114092283D01*
X168481461Y-114632195D01*
X168475178Y-114638575D01*
X168470618Y-114639500D01*
X167986382Y-114639500D01*
X167978109Y-114636073D01*
X167975539Y-114632195D01*
X167756708Y-114092283D01*
X167756776Y-114083328D01*
X167760058Y-114078902D01*
X168221009Y-113694742D01*
X168229559Y-113692079D01*
X168235991Y-113694743D01*
G37*
G04 #@! TD.AperFunction*
G04 #@! TA.AperFunction,Conductor*
G36*
X168479160Y-114359660D02*
G01*
X168481584Y-114363193D01*
X168746706Y-114961491D01*
X168746925Y-114970443D01*
X168740749Y-114976928D01*
X168740511Y-114977030D01*
X168384175Y-115125593D01*
X168379644Y-115126494D01*
X167993618Y-115125529D01*
X167985353Y-115122081D01*
X167981947Y-115113882D01*
X167981324Y-114976928D01*
X167978553Y-114367984D01*
X167981942Y-114359698D01*
X167990200Y-114356233D01*
X168470887Y-114356233D01*
X168479160Y-114359660D01*
G37*
G04 #@! TD.AperFunction*
G04 #@! TA.AperFunction,Conductor*
G36*
X152716754Y-106976532D02*
G01*
X153322195Y-107190244D01*
X153328855Y-107196229D01*
X153330000Y-107201277D01*
X153330000Y-107684722D01*
X153326573Y-107692995D01*
X153322194Y-107695755D01*
X152716758Y-107909466D01*
X152707816Y-107908988D01*
X152703287Y-107905153D01*
X152383715Y-107449720D01*
X152381768Y-107440980D01*
X152383715Y-107436280D01*
X152703288Y-106980845D01*
X152710844Y-106976042D01*
X152716754Y-106976532D01*
G37*
G04 #@! TD.AperFunction*
G04 #@! TA.AperFunction,Conductor*
G36*
X153495416Y-106974123D02*
G01*
X153501197Y-106980190D01*
X153589921Y-107193000D01*
X153650093Y-107337324D01*
X153650994Y-107341855D01*
X153650030Y-107727112D01*
X153646582Y-107735377D01*
X153638301Y-107738783D01*
X153637633Y-107738762D01*
X152881590Y-107693656D01*
X152873536Y-107689743D01*
X152870587Y-107681977D01*
X152870587Y-107201253D01*
X152874014Y-107192980D01*
X152878362Y-107190231D01*
X153486475Y-106973670D01*
X153495416Y-106974123D01*
G37*
G04 #@! TD.AperFunction*
G04 #@! TA.AperFunction,Conductor*
G36*
X150302341Y-112390063D02*
G01*
X151000411Y-112806777D01*
X151005758Y-112813960D01*
X151005234Y-112821275D01*
X150858853Y-113176996D01*
X150852535Y-113183343D01*
X150852500Y-113183358D01*
X150496988Y-113330218D01*
X150488033Y-113330209D01*
X150481825Y-113324147D01*
X150285649Y-112881764D01*
X150284645Y-112877021D01*
X150284645Y-112400110D01*
X150288072Y-112391837D01*
X150296345Y-112388410D01*
X150302341Y-112390063D01*
G37*
G04 #@! TD.AperFunction*
G04 #@! TA.AperFunction,Conductor*
G36*
X166848842Y-107139060D02*
G01*
X167454995Y-107340835D01*
X167461763Y-107346699D01*
X167463000Y-107351936D01*
X167463000Y-107835063D01*
X167459573Y-107843336D01*
X167454995Y-107846164D01*
X166848845Y-108047938D01*
X166839913Y-108047300D01*
X166836269Y-108044454D01*
X166663917Y-107843500D01*
X166456031Y-107601115D01*
X166453247Y-107592606D01*
X166456031Y-107585884D01*
X166836271Y-107142543D01*
X166844256Y-107138496D01*
X166848842Y-107139060D01*
G37*
G04 #@! TD.AperFunction*
G04 #@! TA.AperFunction,Conductor*
G36*
X167890086Y-107299671D02*
G01*
X167894009Y-107307720D01*
X167894031Y-107308403D01*
X167894994Y-107693644D01*
X167894093Y-107698175D01*
X167745190Y-108055324D01*
X167738843Y-108061642D01*
X167730483Y-108061850D01*
X167122180Y-107846261D01*
X167115526Y-107840267D01*
X167114388Y-107835233D01*
X167114388Y-107354508D01*
X167117815Y-107346235D01*
X167125374Y-107342830D01*
X167881619Y-107296754D01*
X167890086Y-107299671D01*
G37*
G04 #@! TD.AperFunction*
G04 #@! TA.AperFunction,Conductor*
G36*
X154548494Y-118998287D02*
G01*
X154915928Y-119422149D01*
X154918757Y-119430645D01*
X154917597Y-119434955D01*
X154686415Y-119907496D01*
X154679701Y-119913421D01*
X154673742Y-119913852D01*
X153979537Y-119783293D01*
X153972040Y-119778396D01*
X153970000Y-119771795D01*
X153970000Y-119288688D01*
X153973427Y-119280415D01*
X153976409Y-119278251D01*
X154534366Y-118995513D01*
X154543293Y-118994832D01*
X154548494Y-118998287D01*
G37*
G04 #@! TD.AperFunction*
G04 #@! TA.AperFunction,Conductor*
G36*
X153409817Y-119134090D02*
G01*
X154186457Y-119279710D01*
X154193956Y-119284603D01*
X154196000Y-119291210D01*
X154196000Y-119771789D01*
X154192573Y-119780062D01*
X154186456Y-119783289D01*
X153409820Y-119928908D01*
X153401057Y-119927064D01*
X153396164Y-119919564D01*
X153395964Y-119917446D01*
X153395000Y-119531500D01*
X153395964Y-119145559D01*
X153399412Y-119137297D01*
X153407693Y-119133891D01*
X153409817Y-119134090D01*
G37*
G04 #@! TD.AperFunction*
G04 #@! TA.AperFunction,Conductor*
G36*
X152387007Y-112724743D02*
G01*
X152830163Y-113056330D01*
X152834735Y-113064030D01*
X152834255Y-113069393D01*
X152632665Y-113674995D01*
X152626801Y-113681763D01*
X152621564Y-113683000D01*
X152138436Y-113683000D01*
X152130163Y-113679573D01*
X152127335Y-113674995D01*
X151925744Y-113069393D01*
X151926382Y-113060461D01*
X151929833Y-113056333D01*
X152372991Y-112724743D01*
X152381668Y-112722531D01*
X152387007Y-112724743D01*
G37*
G04 #@! TD.AperFunction*
G04 #@! TA.AperFunction,Conductor*
G36*
X152628563Y-113400927D02*
G01*
X152631790Y-113407044D01*
X152777408Y-114183679D01*
X152775564Y-114192442D01*
X152768064Y-114197335D01*
X152765937Y-114197535D01*
X152380029Y-114198499D01*
X152379971Y-114198499D01*
X151994062Y-114197535D01*
X151985797Y-114194087D01*
X151982391Y-114185806D01*
X151982591Y-114183679D01*
X152128210Y-113407044D01*
X152133103Y-113399544D01*
X152139710Y-113397500D01*
X152620290Y-113397500D01*
X152628563Y-113400927D01*
G37*
G04 #@! TD.AperFunction*
G04 #@! TA.AperFunction,Conductor*
G36*
X171122183Y-115000511D02*
G01*
X171126712Y-115004346D01*
X171446284Y-115459780D01*
X171448231Y-115468520D01*
X171446284Y-115473220D01*
X171126712Y-115928653D01*
X171119155Y-115933457D01*
X171113241Y-115932966D01*
X170913600Y-115862495D01*
X170507806Y-115719255D01*
X170501145Y-115713270D01*
X170500000Y-115708222D01*
X170500000Y-115224777D01*
X170503427Y-115216504D01*
X170507803Y-115213745D01*
X171113243Y-115000033D01*
X171122183Y-115000511D01*
G37*
G04 #@! TD.AperFunction*
G04 #@! TA.AperFunction,Conductor*
G36*
X170089791Y-114951141D02*
G01*
X170089980Y-114951222D01*
X170689055Y-115213432D01*
X170695260Y-115219888D01*
X170696064Y-115224150D01*
X170696064Y-115704792D01*
X170692637Y-115713065D01*
X170684364Y-115716492D01*
X170684356Y-115716492D01*
X169937662Y-115716007D01*
X169929391Y-115712575D01*
X169925970Y-115704338D01*
X169925005Y-115318350D01*
X169925904Y-115313829D01*
X170074491Y-114957436D01*
X170080837Y-114951120D01*
X170089791Y-114951141D01*
G37*
G04 #@! TD.AperFunction*
G04 #@! TA.AperFunction,Conductor*
G36*
X166498464Y-110639368D02*
G01*
X166505667Y-110644686D01*
X166506462Y-110646265D01*
X166695875Y-111105882D01*
X166695859Y-111114837D01*
X166689717Y-111121072D01*
X165832843Y-111493065D01*
X165823890Y-111493216D01*
X165819911Y-111490606D01*
X165654171Y-111324866D01*
X165650744Y-111316593D01*
X165651546Y-111312336D01*
X165962260Y-110516821D01*
X165968462Y-110510363D01*
X165975974Y-110509723D01*
X166498464Y-110639368D01*
G37*
G04 #@! TD.AperFunction*
G04 #@! TA.AperFunction,Conductor*
G36*
X166510991Y-113694743D02*
G01*
X166971939Y-114078900D01*
X166976100Y-114086829D01*
X166975291Y-114092283D01*
X166756461Y-114632195D01*
X166750178Y-114638575D01*
X166745618Y-114639500D01*
X166261382Y-114639500D01*
X166253109Y-114636073D01*
X166250539Y-114632195D01*
X166031708Y-114092283D01*
X166031776Y-114083328D01*
X166035058Y-114078902D01*
X166496009Y-113694742D01*
X166504559Y-113692079D01*
X166510991Y-113694743D01*
G37*
G04 #@! TD.AperFunction*
G04 #@! TA.AperFunction,Conductor*
G36*
X166114586Y-113235652D02*
G01*
X166117175Y-113237899D01*
X166497798Y-113681686D01*
X166500583Y-113690197D01*
X166497602Y-113697142D01*
X166105468Y-114131589D01*
X166097381Y-114135435D01*
X166092071Y-114134459D01*
X165497988Y-113873074D01*
X165491796Y-113866606D01*
X165491000Y-113862365D01*
X165491000Y-113379395D01*
X165494427Y-113371122D01*
X165500171Y-113367972D01*
X166105768Y-113234092D01*
X166114586Y-113235652D01*
G37*
G04 #@! TD.AperFunction*
G04 #@! TA.AperFunction,Conductor*
G36*
X162893860Y-123834037D02*
G01*
X163565490Y-124618893D01*
X163568266Y-124627407D01*
X163565490Y-124634107D01*
X162893860Y-125418962D01*
X162885878Y-125423020D01*
X162878919Y-125421368D01*
X161983079Y-124879913D01*
X161977771Y-124872701D01*
X161977431Y-124869900D01*
X161977431Y-124383099D01*
X161980858Y-124374826D01*
X161983079Y-124373086D01*
X162878921Y-123831630D01*
X162887772Y-123830284D01*
X162893860Y-123834037D01*
G37*
G04 #@! TD.AperFunction*
G04 #@! TA.AperFunction,Conductor*
G36*
X159299012Y-123832008D02*
G01*
X160085928Y-124373013D01*
X160090804Y-124380524D01*
X160091000Y-124382654D01*
X160091000Y-124870346D01*
X160087573Y-124878619D01*
X160085928Y-124879987D01*
X159299014Y-125420990D01*
X159290256Y-125422853D01*
X159284118Y-125419627D01*
X158743803Y-124879987D01*
X158498287Y-124634777D01*
X158494856Y-124626507D01*
X158498278Y-124618232D01*
X158498288Y-124618222D01*
X159284120Y-123833371D01*
X159292393Y-123829950D01*
X159299012Y-123832008D01*
G37*
G04 #@! TD.AperFunction*
G04 #@! TA.AperFunction,Conductor*
G36*
X164263078Y-123831630D02*
G01*
X165158921Y-124373086D01*
X165164229Y-124380298D01*
X165164569Y-124383099D01*
X165164569Y-124869900D01*
X165161142Y-124878173D01*
X165158921Y-124879913D01*
X164263080Y-125421368D01*
X164254227Y-125422715D01*
X164248139Y-125418962D01*
X163576508Y-124634105D01*
X163573733Y-124625593D01*
X163576508Y-124618894D01*
X164248141Y-123834035D01*
X164256121Y-123829979D01*
X164263078Y-123831630D01*
G37*
G04 #@! TD.AperFunction*
G04 #@! TA.AperFunction,Conductor*
G36*
X152717589Y-108803677D02*
G01*
X153323971Y-109139659D01*
X153329546Y-109146665D01*
X153330000Y-109149892D01*
X153330000Y-109386107D01*
X153326573Y-109394380D01*
X153323970Y-109396341D01*
X152717590Y-109732321D01*
X152708693Y-109733333D01*
X152702343Y-109728807D01*
X152383715Y-109274720D01*
X152381768Y-109265980D01*
X152383715Y-109261280D01*
X152702343Y-108807192D01*
X152709900Y-108802388D01*
X152717589Y-108803677D01*
G37*
G04 #@! TD.AperFunction*
G04 #@! TA.AperFunction,Conductor*
G36*
X163960026Y-109731191D02*
G01*
X164314195Y-109876936D01*
X164320542Y-109883254D01*
X164320563Y-109883304D01*
X164467156Y-110239535D01*
X164467135Y-110248489D01*
X164462132Y-110254150D01*
X163909003Y-110569604D01*
X163900119Y-110570726D01*
X163894934Y-110567714D01*
X163729587Y-110402367D01*
X163726160Y-110394094D01*
X163726762Y-110390389D01*
X163774140Y-110248489D01*
X163944481Y-109738305D01*
X163950351Y-109731546D01*
X163959283Y-109730915D01*
X163960026Y-109731191D01*
G37*
G04 #@! TD.AperFunction*
G04 #@! TA.AperFunction,Conductor*
G36*
X155974071Y-109228752D02*
G01*
X156586760Y-109505293D01*
X156592891Y-109511820D01*
X156592767Y-109520409D01*
X156446563Y-109875695D01*
X156440245Y-109882042D01*
X156440195Y-109882063D01*
X156084909Y-110028267D01*
X156075955Y-110028246D01*
X156069793Y-110022260D01*
X156005676Y-109880207D01*
X155843279Y-109520409D01*
X155793252Y-109409571D01*
X155792972Y-109400621D01*
X155795641Y-109396487D01*
X155960986Y-109231142D01*
X155969258Y-109227716D01*
X155974071Y-109228752D01*
G37*
G04 #@! TD.AperFunction*
G04 #@! TA.AperFunction,Conductor*
G36*
X151981703Y-108857405D02*
G01*
X152374245Y-109261054D01*
X152377556Y-109269374D01*
X152375434Y-109275931D01*
X152056814Y-109730007D01*
X152049257Y-109734811D01*
X152043132Y-109734243D01*
X151437595Y-109507345D01*
X151431050Y-109501233D01*
X151430000Y-109496389D01*
X151430000Y-109260384D01*
X151433427Y-109252111D01*
X151434719Y-109250994D01*
X151966339Y-108856168D01*
X151975024Y-108853987D01*
X151981703Y-108857405D01*
G37*
G04 #@! TD.AperFunction*
G04 #@! TA.AperFunction,Conductor*
G36*
X149676791Y-109045049D02*
G01*
X150123208Y-109251361D01*
X150129281Y-109257943D01*
X150130000Y-109261982D01*
X150130000Y-109497017D01*
X150126573Y-109505290D01*
X150123208Y-109507638D01*
X149676798Y-109713947D01*
X149667851Y-109714307D01*
X149667114Y-109714007D01*
X149154069Y-109484607D01*
X148942886Y-109390180D01*
X148936733Y-109383676D01*
X148936982Y-109374724D01*
X148942886Y-109368819D01*
X149667114Y-109044991D01*
X149676066Y-109044743D01*
X149676791Y-109045049D01*
G37*
G04 #@! TD.AperFunction*
G04 #@! TA.AperFunction,Conductor*
G36*
X149676791Y-110045049D02*
G01*
X150123208Y-110251361D01*
X150129281Y-110257943D01*
X150130000Y-110261982D01*
X150130000Y-110497017D01*
X150126573Y-110505290D01*
X150123208Y-110507638D01*
X149676798Y-110713947D01*
X149667851Y-110714307D01*
X149667114Y-110714007D01*
X149154069Y-110484607D01*
X148942886Y-110390180D01*
X148936733Y-110383676D01*
X148936982Y-110374724D01*
X148942886Y-110368819D01*
X149667114Y-110044991D01*
X149676066Y-110044743D01*
X149676791Y-110045049D01*
G37*
G04 #@! TD.AperFunction*
G04 #@! TA.AperFunction,Conductor*
G36*
X152717589Y-110431177D02*
G01*
X153323971Y-110767159D01*
X153329546Y-110774165D01*
X153330000Y-110777392D01*
X153330000Y-111013607D01*
X153326573Y-111021880D01*
X153323970Y-111023841D01*
X152717590Y-111359821D01*
X152708693Y-111360833D01*
X152702343Y-111356307D01*
X152383715Y-110902220D01*
X152381768Y-110893480D01*
X152383715Y-110888780D01*
X152702343Y-110434692D01*
X152709900Y-110429888D01*
X152717589Y-110431177D01*
G37*
G04 #@! TD.AperFunction*
G04 #@! TA.AperFunction,Conductor*
G36*
X156289294Y-110530228D02*
G01*
X156295280Y-110536390D01*
X156443123Y-110890998D01*
X156443144Y-110899952D01*
X156443123Y-110900002D01*
X156295280Y-111254609D01*
X156288933Y-111260927D01*
X156280344Y-111261051D01*
X155651563Y-111023358D01*
X155645036Y-111017227D01*
X155644000Y-111012414D01*
X155644000Y-110778585D01*
X155647427Y-110770312D01*
X155651563Y-110767641D01*
X156280345Y-110529948D01*
X156289294Y-110530228D01*
G37*
G04 #@! TD.AperFunction*
G04 #@! TA.AperFunction,Conductor*
G36*
X151551832Y-110256676D02*
G01*
X152482072Y-110406012D01*
X152489697Y-110410707D01*
X152491769Y-110419419D01*
X152491612Y-110420216D01*
X152382163Y-110890501D01*
X152376951Y-110897782D01*
X152376535Y-110898029D01*
X151918726Y-111157378D01*
X151909839Y-111158474D01*
X151902780Y-111152965D01*
X151539778Y-110507170D01*
X151538277Y-110501437D01*
X151538277Y-110268228D01*
X151541704Y-110259955D01*
X151549977Y-110256528D01*
X151551832Y-110256676D01*
G37*
G04 #@! TD.AperFunction*
G04 #@! TA.AperFunction,Conductor*
G36*
X164043421Y-110874892D02*
G01*
X164315546Y-111146058D01*
X164318987Y-111154325D01*
X164318987Y-111154375D01*
X164318029Y-111537541D01*
X164314581Y-111545806D01*
X164306300Y-111549212D01*
X164306045Y-111549209D01*
X163629974Y-111532777D01*
X163621786Y-111529150D01*
X163618558Y-111521080D01*
X163618558Y-111287353D01*
X163621985Y-111279080D01*
X163621992Y-111279072D01*
X164026899Y-110874899D01*
X164035175Y-110871481D01*
X164043421Y-110874892D01*
G37*
G04 #@! TD.AperFunction*
G04 #@! TA.AperFunction,Conductor*
G36*
X160943043Y-106016410D02*
G01*
X161234544Y-106422868D01*
X161265007Y-106465345D01*
X161267043Y-106474065D01*
X161263897Y-106480311D01*
X160871411Y-106884877D01*
X160863190Y-106888429D01*
X160856429Y-106886402D01*
X160420279Y-106589522D01*
X160418590Y-106588123D01*
X160253335Y-106422868D01*
X160249908Y-106414595D01*
X160253335Y-106406322D01*
X160255716Y-106404487D01*
X160927649Y-106013119D01*
X160936521Y-106011917D01*
X160943043Y-106016410D01*
G37*
G04 #@! TD.AperFunction*
G04 #@! TA.AperFunction,Conductor*
G36*
X157198247Y-112475310D02*
G01*
X157804811Y-112799195D01*
X157810495Y-112806115D01*
X157811000Y-112809516D01*
X157811000Y-113045483D01*
X157807573Y-113053756D01*
X157804811Y-113055804D01*
X157198247Y-113379689D01*
X157189335Y-113380563D01*
X157183368Y-113376377D01*
X156941030Y-113052500D01*
X156852743Y-112934508D01*
X156850531Y-112925832D01*
X156852744Y-112920491D01*
X156943503Y-112799195D01*
X157183369Y-112478621D01*
X157191068Y-112474050D01*
X157198247Y-112475310D01*
G37*
G04 #@! TD.AperFunction*
G04 #@! TA.AperFunction,Conductor*
G36*
X157814504Y-116214790D02*
G01*
X158485490Y-116998893D01*
X158488266Y-117007407D01*
X158485490Y-117014107D01*
X157814504Y-117798209D01*
X157806522Y-117802267D01*
X157798646Y-117799999D01*
X157327758Y-117450706D01*
X156902161Y-117135008D01*
X156897557Y-117127327D01*
X156897431Y-117125611D01*
X156897431Y-116887388D01*
X156900858Y-116879115D01*
X156902157Y-116877993D01*
X157798648Y-116212999D01*
X157807331Y-116210823D01*
X157814504Y-116214790D01*
G37*
G04 #@! TD.AperFunction*
G04 #@! TA.AperFunction,Conductor*
G36*
X158626039Y-114811197D02*
G01*
X158979496Y-114956646D01*
X158985843Y-114962964D01*
X158985858Y-114962999D01*
X159132685Y-115318430D01*
X159132676Y-115327385D01*
X159126531Y-115333629D01*
X158618229Y-115554326D01*
X158613569Y-115555294D01*
X158382209Y-115555294D01*
X158373936Y-115551867D01*
X158370509Y-115543594D01*
X158371104Y-115539910D01*
X158563995Y-114958500D01*
X158610496Y-114818337D01*
X158616354Y-114811565D01*
X158625285Y-114810917D01*
X158626039Y-114811197D01*
G37*
G04 #@! TD.AperFunction*
G04 #@! TA.AperFunction,Conductor*
G36*
X155657718Y-116886553D02*
G01*
X155663125Y-116893692D01*
X155663505Y-116896649D01*
X155663505Y-117129330D01*
X155662726Y-117133527D01*
X155399539Y-117818466D01*
X155393373Y-117824959D01*
X155384421Y-117825190D01*
X155383582Y-117824829D01*
X154923618Y-117605205D01*
X154917628Y-117598548D01*
X154917484Y-117598113D01*
X154771411Y-117127190D01*
X154772233Y-117118274D01*
X154779120Y-117112550D01*
X154779593Y-117112415D01*
X155648848Y-116885329D01*
X155657718Y-116886553D01*
G37*
G04 #@! TD.AperFunction*
G04 #@! TA.AperFunction,Conductor*
G36*
X160887853Y-114263485D02*
G01*
X160891277Y-114271474D01*
X160907709Y-114947545D01*
X160904484Y-114955899D01*
X160896296Y-114959526D01*
X160896041Y-114959529D01*
X160512875Y-114960487D01*
X160504594Y-114957081D01*
X160504558Y-114957046D01*
X160503415Y-114955899D01*
X160233392Y-114684921D01*
X160229981Y-114676643D01*
X160233399Y-114668399D01*
X160637572Y-114263491D01*
X160645842Y-114260058D01*
X160879580Y-114260058D01*
X160887853Y-114263485D01*
G37*
G04 #@! TD.AperFunction*
G04 #@! TA.AperFunction,Conductor*
G36*
X158715390Y-115067992D02*
G01*
X158716357Y-115068858D01*
X158881892Y-115234393D01*
X158884754Y-115239073D01*
X159272991Y-116442256D01*
X159272270Y-116451182D01*
X159268623Y-116455394D01*
X158499375Y-117000767D01*
X158490644Y-117002756D01*
X158483411Y-116998453D01*
X157831555Y-116169334D01*
X157829137Y-116160714D01*
X157831613Y-116154801D01*
X158698948Y-115069823D01*
X158706788Y-115065503D01*
X158715390Y-115067992D01*
G37*
G04 #@! TD.AperFunction*
G04 #@! TA.AperFunction,Conductor*
G36*
X155257589Y-120948677D02*
G01*
X155863971Y-121284659D01*
X155869546Y-121291665D01*
X155870000Y-121294892D01*
X155870000Y-121531107D01*
X155866573Y-121539380D01*
X155863970Y-121541341D01*
X155257590Y-121877321D01*
X155248693Y-121878333D01*
X155242343Y-121873807D01*
X154923715Y-121419720D01*
X154921768Y-121410980D01*
X154923715Y-121406280D01*
X155242343Y-120952192D01*
X155249900Y-120947388D01*
X155257589Y-120948677D01*
G37*
G04 #@! TD.AperFunction*
G04 #@! TA.AperFunction,Conductor*
G36*
X161038234Y-117015226D02*
G01*
X161040195Y-117017187D01*
X161691695Y-117845261D01*
X161694118Y-117853881D01*
X161693073Y-117857504D01*
X161159170Y-118984437D01*
X161152531Y-118990447D01*
X161148597Y-118991128D01*
X160913403Y-118991128D01*
X160905130Y-118987701D01*
X160902830Y-118984437D01*
X160368926Y-117857504D01*
X160368480Y-117848561D01*
X160370302Y-117845263D01*
X161021805Y-117017186D01*
X161029614Y-117012803D01*
X161038234Y-117015226D01*
G37*
G04 #@! TD.AperFunction*
G04 #@! TA.AperFunction,Conductor*
G36*
X159891557Y-115715571D02*
G01*
X160979543Y-115820883D01*
X160987447Y-115825091D01*
X160990108Y-115832122D01*
X161030721Y-116999502D01*
X161027584Y-117007889D01*
X161023646Y-117010659D01*
X160254216Y-117341215D01*
X160245262Y-117341332D01*
X160238848Y-117335083D01*
X160238622Y-117334517D01*
X159646815Y-115731270D01*
X159647165Y-115722322D01*
X159653739Y-115716242D01*
X159657791Y-115715518D01*
X159890431Y-115715518D01*
X159891557Y-115715571D01*
G37*
G04 #@! TD.AperFunction*
G04 #@! TA.AperFunction,Conductor*
G36*
X164263351Y-116212999D02*
G01*
X165159839Y-116877991D01*
X165164443Y-116885672D01*
X165164569Y-116887388D01*
X165164569Y-117125611D01*
X165161142Y-117133884D01*
X165159839Y-117135008D01*
X164263354Y-117799999D01*
X164254668Y-117802176D01*
X164247495Y-117798209D01*
X163676967Y-117131500D01*
X163576508Y-117014105D01*
X163573733Y-117005593D01*
X163576508Y-116998894D01*
X164247496Y-116214789D01*
X164255477Y-116210732D01*
X164263351Y-116212999D01*
G37*
G04 #@! TD.AperFunction*
G04 #@! TA.AperFunction,Conductor*
G36*
X166572118Y-116885076D02*
G01*
X167494384Y-117112594D01*
X167501596Y-117117902D01*
X167502941Y-117126755D01*
X167502833Y-117127165D01*
X167368409Y-117598064D01*
X167362842Y-117605078D01*
X167362412Y-117605306D01*
X166901741Y-117836856D01*
X166892811Y-117837509D01*
X166886033Y-117831656D01*
X166885894Y-117831370D01*
X166558728Y-117133860D01*
X166557621Y-117128892D01*
X166557621Y-116896436D01*
X166561048Y-116888163D01*
X166569321Y-116884736D01*
X166572118Y-116885076D01*
G37*
G04 #@! TD.AperFunction*
G04 #@! TA.AperFunction,Conductor*
G36*
X162381932Y-115635710D02*
G01*
X163443107Y-115809639D01*
X163508378Y-115820337D01*
X163515988Y-115825057D01*
X163518174Y-115831351D01*
X163571340Y-116999155D01*
X163568293Y-117007575D01*
X163564313Y-117010418D01*
X162794200Y-117344935D01*
X162785247Y-117345088D01*
X162778808Y-117338865D01*
X162778600Y-117338355D01*
X162201925Y-115818590D01*
X162202194Y-115809639D01*
X162204588Y-115806169D01*
X162371774Y-115638983D01*
X162380046Y-115635557D01*
X162381932Y-115635710D01*
G37*
G04 #@! TD.AperFunction*
G04 #@! TA.AperFunction,Conductor*
G36*
X170799281Y-112809765D02*
G01*
X171623768Y-113149678D01*
X171630111Y-113156000D01*
X171630261Y-113164612D01*
X171452497Y-113637445D01*
X171446378Y-113643983D01*
X171446003Y-113644145D01*
X170985737Y-113833825D01*
X170976782Y-113833809D01*
X170970495Y-113827547D01*
X170618342Y-112990817D01*
X170618291Y-112981862D01*
X170620851Y-112978007D01*
X170786550Y-112812308D01*
X170794822Y-112808882D01*
X170799281Y-112809765D01*
G37*
G04 #@! TD.AperFunction*
G04 #@! TA.AperFunction,Conductor*
G36*
X164336086Y-107139699D02*
G01*
X164339730Y-107142545D01*
X164719967Y-107585883D01*
X164722752Y-107594394D01*
X164719967Y-107601117D01*
X164339730Y-108044454D01*
X164331743Y-108048503D01*
X164327154Y-108047938D01*
X163721005Y-107846164D01*
X163714237Y-107840300D01*
X163713000Y-107835063D01*
X163713000Y-107351936D01*
X163716427Y-107343663D01*
X163721003Y-107340835D01*
X164327156Y-107139061D01*
X164336086Y-107139699D01*
G37*
G04 #@! TD.AperFunction*
G04 #@! TA.AperFunction,Conductor*
G36*
X148896296Y-108349048D02*
G01*
X148902708Y-108355297D01*
X148902823Y-108364251D01*
X148897128Y-108370408D01*
X148181725Y-108722851D01*
X148172789Y-108723434D01*
X148172633Y-108723380D01*
X147895579Y-108624840D01*
X147891227Y-108622089D01*
X147552018Y-108282880D01*
X147548591Y-108274607D01*
X147552018Y-108266334D01*
X147555889Y-108263767D01*
X148110089Y-108038711D01*
X148118826Y-108038686D01*
X148896296Y-108349048D01*
G37*
G04 #@! TD.AperFunction*
G04 #@! TA.AperFunction,Conductor*
G36*
X147973355Y-110954370D02*
G01*
X148950247Y-111018697D01*
X148958277Y-111022660D01*
X148961153Y-111031141D01*
X148961108Y-111031647D01*
X148921626Y-111391820D01*
X148917318Y-111399670D01*
X148912459Y-111401983D01*
X148064634Y-111584557D01*
X148055977Y-111583045D01*
X147627009Y-111315368D01*
X147621805Y-111308081D01*
X147623277Y-111299248D01*
X147624926Y-111297173D01*
X147964327Y-110957772D01*
X147972599Y-110954346D01*
X147973355Y-110954370D01*
G37*
G04 #@! TD.AperFunction*
G04 #@! TA.AperFunction,Conductor*
G36*
X155965833Y-105234323D02*
G01*
X156539705Y-105807220D01*
X156543139Y-105815490D01*
X156539719Y-105823766D01*
X156539705Y-105823780D01*
X155965833Y-106396676D01*
X155957557Y-106400096D01*
X155951739Y-106398541D01*
X155377872Y-106068873D01*
X155372405Y-106061781D01*
X155372000Y-106058728D01*
X155372000Y-105572271D01*
X155375427Y-105563998D01*
X155377868Y-105562128D01*
X155951740Y-105232457D01*
X155960620Y-105231308D01*
X155965833Y-105234323D01*
G37*
G04 #@! TD.AperFunction*
G04 #@! TA.AperFunction,Conductor*
G36*
X156557084Y-105844260D02*
G01*
X156557511Y-105845271D01*
X157113483Y-107355774D01*
X157113125Y-107364721D01*
X157112409Y-107366040D01*
X156773975Y-107904604D01*
X156772342Y-107906652D01*
X156431329Y-108247665D01*
X156423056Y-108251092D01*
X156414783Y-108247665D01*
X156412536Y-108244513D01*
X156248079Y-107906652D01*
X155995515Y-107387786D01*
X155994976Y-107378850D01*
X156535496Y-105845421D01*
X156541479Y-105838759D01*
X156550421Y-105838277D01*
X156557084Y-105844260D01*
G37*
G04 #@! TD.AperFunction*
G04 #@! TA.AperFunction,Conductor*
G36*
X149891661Y-107956962D02*
G01*
X149891877Y-107957173D01*
X150231084Y-108296380D01*
X150234511Y-108304653D01*
X150231084Y-108312926D01*
X150228650Y-108314792D01*
X149778793Y-108573846D01*
X149770089Y-108575051D01*
X148927338Y-108362238D01*
X148920156Y-108356890D01*
X148918550Y-108351941D01*
X148915212Y-108314792D01*
X148886204Y-107991921D01*
X148888877Y-107983374D01*
X148896810Y-107979221D01*
X148897542Y-107979178D01*
X149883303Y-107953750D01*
X149891661Y-107956962D01*
G37*
G04 #@! TD.AperFunction*
G04 #@! TA.AperFunction,Conductor*
G36*
X158235219Y-105849895D02*
G01*
X158236444Y-105852161D01*
X158808416Y-107262828D01*
X158809216Y-107268373D01*
X158759457Y-107772829D01*
X158756087Y-107779953D01*
X158414728Y-108121312D01*
X158406455Y-108124739D01*
X158398182Y-108121312D01*
X158397326Y-108120357D01*
X157915836Y-107519661D01*
X157913335Y-107511062D01*
X157913450Y-107510272D01*
X158214089Y-105854465D01*
X158218939Y-105846939D01*
X158227691Y-105845045D01*
X158235219Y-105849895D01*
G37*
G04 #@! TD.AperFunction*
G04 #@! TA.AperFunction,Conductor*
G36*
X161987591Y-108967245D02*
G01*
X161993900Y-108973601D01*
X161994392Y-108981004D01*
X161893289Y-109366766D01*
X161887876Y-109373900D01*
X161881971Y-109375500D01*
X161650029Y-109375500D01*
X161641756Y-109372073D01*
X161638711Y-109366766D01*
X161537607Y-108981004D01*
X161538825Y-108972133D01*
X161544406Y-108967246D01*
X161761484Y-108876389D01*
X161770437Y-108876357D01*
X161987591Y-108967245D01*
G37*
G04 #@! TD.AperFunction*
G04 #@! TA.AperFunction,Conductor*
G36*
X157410181Y-108544357D02*
G01*
X157410930Y-108545188D01*
X157714270Y-108915937D01*
X157716857Y-108924509D01*
X157713488Y-108931618D01*
X157445618Y-109199488D01*
X157437345Y-109202915D01*
X157429937Y-109200270D01*
X157101584Y-108931618D01*
X157059188Y-108896930D01*
X157054955Y-108889039D01*
X157057542Y-108880466D01*
X157058279Y-108879647D01*
X157225293Y-108711293D01*
X157393637Y-108544290D01*
X157401922Y-108540897D01*
X157410181Y-108544357D01*
G37*
G04 #@! TD.AperFunction*
G04 #@! TA.AperFunction,Conductor*
G36*
X157410181Y-108544357D02*
G01*
X157410930Y-108545188D01*
X157714270Y-108915937D01*
X157716857Y-108924509D01*
X157713488Y-108931618D01*
X157445618Y-109199488D01*
X157437345Y-109202915D01*
X157429937Y-109200270D01*
X157101584Y-108931618D01*
X157059188Y-108896930D01*
X157054955Y-108889039D01*
X157057542Y-108880466D01*
X157058279Y-108879647D01*
X157225293Y-108711293D01*
X157393637Y-108544290D01*
X157401922Y-108540897D01*
X157410181Y-108544357D01*
G37*
G04 #@! TD.AperFunction*
M02*
