G04 #@! TF.GenerationSoftware,KiCad,Pcbnew,8.0.2*
G04 #@! TF.CreationDate,2024-06-03T19:44:32-07:00*
G04 #@! TF.ProjectId,SNES_USB_C_power,534e4553-5f55-4534-925f-435f706f7765,A*
G04 #@! TF.SameCoordinates,Original*
G04 #@! TF.FileFunction,Copper,L2,Bot*
G04 #@! TF.FilePolarity,Positive*
%FSLAX46Y46*%
G04 Gerber Fmt 4.6, Leading zero omitted, Abs format (unit mm)*
G04 Created by KiCad (PCBNEW 8.0.2) date 2024-06-03 19:44:32*
%MOMM*%
%LPD*%
G01*
G04 APERTURE LIST*
G04 #@! TA.AperFunction,ComponentPad*
%ADD10C,0.800000*%
G04 #@! TD*
G04 #@! TA.AperFunction,ComponentPad*
%ADD11C,6.400000*%
G04 #@! TD*
G04 #@! TA.AperFunction,ComponentPad*
%ADD12R,1.700000X1.700000*%
G04 #@! TD*
G04 #@! TA.AperFunction,ComponentPad*
%ADD13O,1.700000X1.700000*%
G04 #@! TD*
G04 #@! TA.AperFunction,ComponentPad*
%ADD14O,1.700000X1.100000*%
G04 #@! TD*
G04 #@! TA.AperFunction,ComponentPad*
%ADD15R,1.600000X2.400000*%
G04 #@! TD*
G04 #@! TA.AperFunction,ComponentPad*
%ADD16O,1.600000X2.400000*%
G04 #@! TD*
G04 #@! TA.AperFunction,ViaPad*
%ADD17C,0.800000*%
G04 #@! TD*
G04 #@! TA.AperFunction,Conductor*
%ADD18C,0.250000*%
G04 #@! TD*
G04 APERTURE END LIST*
D10*
X170066000Y-99060000D03*
X170768944Y-97362944D03*
X170768944Y-100757056D03*
X172466000Y-96660000D03*
D11*
X172466000Y-99060000D03*
D10*
X172466000Y-101460000D03*
X174163056Y-97362944D03*
X174163056Y-100757056D03*
X174866000Y-99060000D03*
X170066000Y-123190000D03*
X170768944Y-121492944D03*
X170768944Y-124887056D03*
X172466000Y-120790000D03*
D11*
X172466000Y-123190000D03*
D10*
X172466000Y-125590000D03*
X174163056Y-121492944D03*
X174163056Y-124887056D03*
X174866000Y-123190000D03*
X143396000Y-123190000D03*
X144098944Y-121492944D03*
X144098944Y-124887056D03*
X145796000Y-120790000D03*
D11*
X145796000Y-123190000D03*
D10*
X145796000Y-125590000D03*
X147493056Y-121492944D03*
X147493056Y-124887056D03*
X148196000Y-123190000D03*
X143396000Y-99060000D03*
X144098944Y-97362944D03*
X144098944Y-100757056D03*
X145796000Y-96660000D03*
D11*
X145796000Y-99060000D03*
D10*
X145796000Y-101460000D03*
X147493056Y-97362944D03*
X147493056Y-100757056D03*
X148196000Y-99060000D03*
D12*
X173990000Y-108453000D03*
D13*
X173990000Y-110993000D03*
D14*
X148580000Y-105559500D03*
X144780000Y-105559500D03*
X148580000Y-114199500D03*
X144780000Y-114199500D03*
D15*
X158491000Y-124626500D03*
D16*
X161031000Y-124626500D03*
X163571000Y-124626500D03*
X163571000Y-117006500D03*
X161031000Y-117006500D03*
X158491000Y-117006500D03*
D17*
X148844000Y-120142000D03*
X171196000Y-111760000D03*
X159258000Y-103124000D03*
X156972000Y-103124000D03*
X153396000Y-119531500D03*
X157801000Y-111374500D03*
X169926000Y-115316000D03*
X153396000Y-123341500D03*
X152380000Y-114197500D03*
X167366000Y-120801500D03*
X169652000Y-110641500D03*
X153650000Y-107339500D03*
X150856000Y-113181500D03*
X167894000Y-107696000D03*
X168382000Y-115125500D03*
X150876000Y-105918000D03*
X156444000Y-109879500D03*
X164318000Y-109879500D03*
X164318000Y-111149500D03*
X156444000Y-110895500D03*
X158984000Y-114959500D03*
X160508000Y-114959500D03*
D18*
X156972000Y-103124000D02*
X159258000Y-103124000D01*
X164318000Y-109879500D02*
X156444000Y-109879500D01*
X163056000Y-110649500D02*
X156690000Y-110649500D01*
X163556000Y-111149500D02*
X163056000Y-110649500D01*
X164318000Y-111149500D02*
X163556000Y-111149500D01*
X156690000Y-110649500D02*
X156444000Y-110895500D01*
X158984000Y-114959500D02*
X160508000Y-114959500D01*
G04 #@! TA.AperFunction,Conductor*
G36*
X144575588Y-124232330D02*
G01*
X144753670Y-124410412D01*
X144855300Y-124484251D01*
X143360648Y-125978903D01*
X143360649Y-125978904D01*
X143618206Y-126187468D01*
X143943456Y-126398689D01*
X144289005Y-126574755D01*
X144384041Y-126611236D01*
X144439573Y-126653638D01*
X144463366Y-126719332D01*
X144447864Y-126787460D01*
X144397991Y-126836393D01*
X144339603Y-126851000D01*
X142136500Y-126851000D01*
X142069461Y-126831315D01*
X142023706Y-126778511D01*
X142012500Y-126727000D01*
X142012500Y-124307362D01*
X142032185Y-124240323D01*
X142084989Y-124194568D01*
X142154147Y-124184624D01*
X142217703Y-124213649D01*
X142255477Y-124272427D01*
X142256275Y-124275269D01*
X142272262Y-124334936D01*
X142411244Y-124696994D01*
X142587310Y-125042543D01*
X142798531Y-125367793D01*
X143007095Y-125625350D01*
X143007096Y-125625350D01*
X144501748Y-124130698D01*
X144575588Y-124232330D01*
G37*
G04 #@! TD.AperFunction*
G04 #@! TA.AperFunction,Conductor*
G36*
X171723572Y-95213685D02*
G01*
X171769327Y-95266489D01*
X171779271Y-95335647D01*
X171750246Y-95399203D01*
X171691468Y-95436977D01*
X171688626Y-95437775D01*
X171321063Y-95536262D01*
X170959005Y-95675244D01*
X170613456Y-95851310D01*
X170288206Y-96062531D01*
X170030648Y-96271095D01*
X170030648Y-96271096D01*
X171525301Y-97765748D01*
X171423670Y-97839588D01*
X171245588Y-98017670D01*
X171171748Y-98119300D01*
X169677096Y-96624648D01*
X169677095Y-96624648D01*
X169468531Y-96882206D01*
X169257310Y-97207456D01*
X169081244Y-97553005D01*
X168942262Y-97915063D01*
X168841887Y-98289669D01*
X168841886Y-98289676D01*
X168781219Y-98672712D01*
X168760922Y-99059999D01*
X168760922Y-99060000D01*
X168781219Y-99447287D01*
X168841886Y-99830323D01*
X168841887Y-99830330D01*
X168942262Y-100204936D01*
X169081244Y-100566994D01*
X169257310Y-100912543D01*
X169468531Y-101237793D01*
X169677095Y-101495350D01*
X169677096Y-101495350D01*
X171171748Y-100000698D01*
X171245588Y-100102330D01*
X171423670Y-100280412D01*
X171525300Y-100354251D01*
X170030648Y-101848903D01*
X170030649Y-101848904D01*
X170288206Y-102057468D01*
X170613456Y-102268689D01*
X170959005Y-102444755D01*
X171321063Y-102583737D01*
X171695669Y-102684112D01*
X171695676Y-102684113D01*
X172078712Y-102744780D01*
X172465999Y-102765078D01*
X172466001Y-102765078D01*
X172853287Y-102744780D01*
X173236323Y-102684113D01*
X173236330Y-102684112D01*
X173610936Y-102583737D01*
X173972994Y-102444755D01*
X174318543Y-102268689D01*
X174643783Y-102057476D01*
X174643785Y-102057475D01*
X174901349Y-101848902D01*
X173406698Y-100354251D01*
X173508330Y-100280412D01*
X173686412Y-100102330D01*
X173760251Y-100000698D01*
X175254902Y-101495349D01*
X175463475Y-101237785D01*
X175463476Y-101237783D01*
X175674689Y-100912543D01*
X175850755Y-100566994D01*
X175969736Y-100257041D01*
X176012138Y-100201509D01*
X176077832Y-100177716D01*
X176145961Y-100193218D01*
X176194893Y-100243091D01*
X176209500Y-100301479D01*
X176209500Y-121948520D01*
X176189815Y-122015559D01*
X176137011Y-122061314D01*
X176067853Y-122071258D01*
X176004297Y-122042233D01*
X175969736Y-121992958D01*
X175850755Y-121683005D01*
X175674689Y-121337456D01*
X175463468Y-121012206D01*
X175254904Y-120754649D01*
X175254903Y-120754648D01*
X173760251Y-122249300D01*
X173686412Y-122147670D01*
X173508330Y-121969588D01*
X173406698Y-121895748D01*
X174901350Y-120401096D01*
X174901350Y-120401095D01*
X174643793Y-120192531D01*
X174318543Y-119981310D01*
X173972994Y-119805244D01*
X173610936Y-119666262D01*
X173236330Y-119565887D01*
X173236323Y-119565886D01*
X172853287Y-119505219D01*
X172466001Y-119484922D01*
X172465999Y-119484922D01*
X172078712Y-119505219D01*
X171695676Y-119565886D01*
X171695669Y-119565887D01*
X171321063Y-119666262D01*
X170959005Y-119805244D01*
X170613456Y-119981310D01*
X170288206Y-120192531D01*
X170030648Y-120401095D01*
X170030648Y-120401096D01*
X171525301Y-121895748D01*
X171423670Y-121969588D01*
X171245588Y-122147670D01*
X171171748Y-122249300D01*
X169677096Y-120754648D01*
X169677095Y-120754648D01*
X169468531Y-121012206D01*
X169257310Y-121337456D01*
X169081244Y-121683005D01*
X168942262Y-122045063D01*
X168841887Y-122419669D01*
X168841886Y-122419676D01*
X168781219Y-122802712D01*
X168760922Y-123189999D01*
X168760922Y-123190000D01*
X168781219Y-123577287D01*
X168841886Y-123960323D01*
X168841887Y-123960330D01*
X168942262Y-124334936D01*
X169081244Y-124696994D01*
X169257310Y-125042543D01*
X169468531Y-125367793D01*
X169677095Y-125625350D01*
X169677096Y-125625350D01*
X171171748Y-124130698D01*
X171245588Y-124232330D01*
X171423670Y-124410412D01*
X171525300Y-124484251D01*
X170030648Y-125978903D01*
X170030649Y-125978904D01*
X170288206Y-126187468D01*
X170613456Y-126398689D01*
X170959005Y-126574755D01*
X171054041Y-126611236D01*
X171109573Y-126653638D01*
X171133366Y-126719332D01*
X171117864Y-126787460D01*
X171067991Y-126836393D01*
X171009603Y-126851000D01*
X147252397Y-126851000D01*
X147185358Y-126831315D01*
X147139603Y-126778511D01*
X147129659Y-126709353D01*
X147158684Y-126645797D01*
X147207959Y-126611236D01*
X147302994Y-126574755D01*
X147648543Y-126398689D01*
X147973783Y-126187476D01*
X147973785Y-126187475D01*
X148231349Y-125978902D01*
X146736698Y-124484251D01*
X146838330Y-124410412D01*
X147016412Y-124232330D01*
X147090251Y-124130698D01*
X148584902Y-125625349D01*
X148793475Y-125367785D01*
X148793476Y-125367783D01*
X149004689Y-125042543D01*
X149180755Y-124696994D01*
X149319737Y-124334936D01*
X149420112Y-123960330D01*
X149420113Y-123960323D01*
X149480780Y-123577287D01*
X149491191Y-123378635D01*
X157190500Y-123378635D01*
X157190500Y-125874370D01*
X157190501Y-125874376D01*
X157196908Y-125933983D01*
X157247202Y-126068828D01*
X157247206Y-126068835D01*
X157333452Y-126184044D01*
X157333455Y-126184047D01*
X157448664Y-126270293D01*
X157448671Y-126270297D01*
X157583517Y-126320591D01*
X157583516Y-126320591D01*
X157590444Y-126321335D01*
X157643127Y-126327000D01*
X159338872Y-126326999D01*
X159398483Y-126320591D01*
X159533331Y-126270296D01*
X159648546Y-126184046D01*
X159734796Y-126068831D01*
X159785091Y-125933983D01*
X159789061Y-125897056D01*
X159815796Y-125832511D01*
X159873188Y-125792661D01*
X159943013Y-125790166D01*
X160003102Y-125825817D01*
X160012667Y-125837429D01*
X160039032Y-125873717D01*
X160183786Y-126018471D01*
X160338749Y-126131056D01*
X160349390Y-126138787D01*
X160465607Y-126198003D01*
X160531776Y-126231718D01*
X160531778Y-126231718D01*
X160531781Y-126231720D01*
X160636137Y-126265627D01*
X160726465Y-126294977D01*
X160827557Y-126310988D01*
X160928648Y-126327000D01*
X160928649Y-126327000D01*
X161133351Y-126327000D01*
X161133352Y-126327000D01*
X161335534Y-126294977D01*
X161530219Y-126231720D01*
X161712610Y-126138787D01*
X161808901Y-126068828D01*
X161878213Y-126018471D01*
X161878215Y-126018468D01*
X161878219Y-126018466D01*
X162022966Y-125873719D01*
X162022968Y-125873715D01*
X162022971Y-125873713D01*
X162143284Y-125708114D01*
X162143285Y-125708113D01*
X162143287Y-125708110D01*
X162190516Y-125615417D01*
X162238489Y-125564623D01*
X162306310Y-125547828D01*
X162372445Y-125570365D01*
X162411483Y-125615417D01*
X162416545Y-125625350D01*
X162458715Y-125708114D01*
X162579028Y-125873713D01*
X162723786Y-126018471D01*
X162878749Y-126131056D01*
X162889390Y-126138787D01*
X163005607Y-126198003D01*
X163071776Y-126231718D01*
X163071778Y-126231718D01*
X163071781Y-126231720D01*
X163176137Y-126265627D01*
X163266465Y-126294977D01*
X163367557Y-126310988D01*
X163468648Y-126327000D01*
X163468649Y-126327000D01*
X163673351Y-126327000D01*
X163673352Y-126327000D01*
X163875534Y-126294977D01*
X164070219Y-126231720D01*
X164252610Y-126138787D01*
X164348901Y-126068828D01*
X164418213Y-126018471D01*
X164418215Y-126018468D01*
X164418219Y-126018466D01*
X164562966Y-125873719D01*
X164562968Y-125873715D01*
X164562971Y-125873713D01*
X164623670Y-125790166D01*
X164683287Y-125708110D01*
X164776220Y-125525719D01*
X164839477Y-125331034D01*
X164871500Y-125128852D01*
X164871500Y-124124148D01*
X164839477Y-123921966D01*
X164776220Y-123727281D01*
X164776218Y-123727278D01*
X164776218Y-123727276D01*
X164730515Y-123637580D01*
X164683287Y-123544890D01*
X164675556Y-123534249D01*
X164562971Y-123379286D01*
X164418213Y-123234528D01*
X164252613Y-123114215D01*
X164252612Y-123114214D01*
X164252610Y-123114213D01*
X164195653Y-123085191D01*
X164070223Y-123021281D01*
X163875534Y-122958022D01*
X163700995Y-122930378D01*
X163673352Y-122926000D01*
X163468648Y-122926000D01*
X163444329Y-122929851D01*
X163266465Y-122958022D01*
X163071776Y-123021281D01*
X162889386Y-123114215D01*
X162723786Y-123234528D01*
X162579028Y-123379286D01*
X162458715Y-123544886D01*
X162411485Y-123637580D01*
X162363510Y-123688376D01*
X162295689Y-123705171D01*
X162229554Y-123682634D01*
X162190515Y-123637580D01*
X162153364Y-123564668D01*
X162143287Y-123544890D01*
X162135556Y-123534249D01*
X162022971Y-123379286D01*
X161878213Y-123234528D01*
X161712613Y-123114215D01*
X161712612Y-123114214D01*
X161712610Y-123114213D01*
X161655653Y-123085191D01*
X161530223Y-123021281D01*
X161335534Y-122958022D01*
X161160995Y-122930378D01*
X161133352Y-122926000D01*
X160928648Y-122926000D01*
X160904329Y-122929851D01*
X160726465Y-122958022D01*
X160531776Y-123021281D01*
X160349386Y-123114215D01*
X160183786Y-123234528D01*
X160039032Y-123379282D01*
X160012668Y-123415570D01*
X159957338Y-123458235D01*
X159887724Y-123464214D01*
X159825929Y-123431608D01*
X159791572Y-123370769D01*
X159789060Y-123355938D01*
X159788640Y-123352033D01*
X159785091Y-123319017D01*
X159736971Y-123190000D01*
X159734797Y-123184171D01*
X159734793Y-123184164D01*
X159648547Y-123068955D01*
X159648544Y-123068952D01*
X159533335Y-122982706D01*
X159533328Y-122982702D01*
X159398482Y-122932408D01*
X159398483Y-122932408D01*
X159338883Y-122926001D01*
X159338881Y-122926000D01*
X159338873Y-122926000D01*
X159338864Y-122926000D01*
X157643129Y-122926000D01*
X157643123Y-122926001D01*
X157583516Y-122932408D01*
X157448671Y-122982702D01*
X157448664Y-122982706D01*
X157333455Y-123068952D01*
X157333452Y-123068955D01*
X157247206Y-123184164D01*
X157247202Y-123184171D01*
X157196908Y-123319017D01*
X157190501Y-123378616D01*
X157190500Y-123378635D01*
X149491191Y-123378635D01*
X149501078Y-123190000D01*
X149501078Y-123189999D01*
X149480780Y-122802712D01*
X149420113Y-122419676D01*
X149420112Y-122419669D01*
X149319737Y-122045063D01*
X149180755Y-121683005D01*
X149004689Y-121337456D01*
X148793468Y-121012206D01*
X148584904Y-120754649D01*
X148584903Y-120754648D01*
X147090251Y-122249300D01*
X147016412Y-122147670D01*
X146838330Y-121969588D01*
X146736698Y-121895748D01*
X148231350Y-120401096D01*
X148231350Y-120401095D01*
X147973793Y-120192531D01*
X147648543Y-119981310D01*
X147302994Y-119805244D01*
X146940936Y-119666262D01*
X146566330Y-119565887D01*
X146566323Y-119565886D01*
X146183287Y-119505219D01*
X145796001Y-119484922D01*
X145795999Y-119484922D01*
X145408712Y-119505219D01*
X145025676Y-119565886D01*
X145025669Y-119565887D01*
X144651063Y-119666262D01*
X144289005Y-119805244D01*
X143943456Y-119981310D01*
X143618206Y-120192531D01*
X143360648Y-120401095D01*
X143360648Y-120401096D01*
X144855301Y-121895748D01*
X144753670Y-121969588D01*
X144575588Y-122147670D01*
X144501748Y-122249300D01*
X143007096Y-120754648D01*
X143007095Y-120754648D01*
X142798531Y-121012206D01*
X142587310Y-121337456D01*
X142411244Y-121683005D01*
X142272263Y-122045060D01*
X142256275Y-122104731D01*
X142219910Y-122164391D01*
X142157063Y-122194920D01*
X142087687Y-122186625D01*
X142033809Y-122142140D01*
X142012535Y-122075588D01*
X142012500Y-122072637D01*
X142012500Y-116504148D01*
X157190500Y-116504148D01*
X157190500Y-117508851D01*
X157222522Y-117711034D01*
X157285781Y-117905723D01*
X157378715Y-118088113D01*
X157499028Y-118253713D01*
X157643786Y-118398471D01*
X157798749Y-118511056D01*
X157809390Y-118518787D01*
X157925607Y-118578003D01*
X157991776Y-118611718D01*
X157991778Y-118611718D01*
X157991781Y-118611720D01*
X158096137Y-118645627D01*
X158186465Y-118674977D01*
X158287557Y-118690988D01*
X158388648Y-118707000D01*
X158388649Y-118707000D01*
X158593351Y-118707000D01*
X158593352Y-118707000D01*
X158795534Y-118674977D01*
X158990219Y-118611720D01*
X159172610Y-118518787D01*
X159265590Y-118451232D01*
X159338213Y-118398471D01*
X159338215Y-118398468D01*
X159338219Y-118398466D01*
X159482966Y-118253719D01*
X159482968Y-118253715D01*
X159482971Y-118253713D01*
X159603284Y-118088114D01*
X159603285Y-118088113D01*
X159603287Y-118088110D01*
X159650516Y-117995417D01*
X159698489Y-117944623D01*
X159766310Y-117927828D01*
X159832445Y-117950365D01*
X159871485Y-117995419D01*
X159918715Y-118088114D01*
X160039028Y-118253713D01*
X160183786Y-118398471D01*
X160338749Y-118511056D01*
X160349390Y-118518787D01*
X160465607Y-118578003D01*
X160531776Y-118611718D01*
X160531778Y-118611718D01*
X160531781Y-118611720D01*
X160636137Y-118645627D01*
X160726465Y-118674977D01*
X160827557Y-118690988D01*
X160928648Y-118707000D01*
X160928649Y-118707000D01*
X161133351Y-118707000D01*
X161133352Y-118707000D01*
X161335534Y-118674977D01*
X161530219Y-118611720D01*
X161712610Y-118518787D01*
X161805590Y-118451232D01*
X161878213Y-118398471D01*
X161878215Y-118398468D01*
X161878219Y-118398466D01*
X162022966Y-118253719D01*
X162022968Y-118253715D01*
X162022971Y-118253713D01*
X162143284Y-118088114D01*
X162143285Y-118088113D01*
X162143287Y-118088110D01*
X162190516Y-117995417D01*
X162238489Y-117944623D01*
X162306310Y-117927828D01*
X162372445Y-117950365D01*
X162411485Y-117995419D01*
X162458715Y-118088114D01*
X162579028Y-118253713D01*
X162723786Y-118398471D01*
X162878749Y-118511056D01*
X162889390Y-118518787D01*
X163005607Y-118578003D01*
X163071776Y-118611718D01*
X163071778Y-118611718D01*
X163071781Y-118611720D01*
X163176137Y-118645627D01*
X163266465Y-118674977D01*
X163367557Y-118690988D01*
X163468648Y-118707000D01*
X163468649Y-118707000D01*
X163673351Y-118707000D01*
X163673352Y-118707000D01*
X163875534Y-118674977D01*
X164070219Y-118611720D01*
X164252610Y-118518787D01*
X164345590Y-118451232D01*
X164418213Y-118398471D01*
X164418215Y-118398468D01*
X164418219Y-118398466D01*
X164562966Y-118253719D01*
X164562968Y-118253715D01*
X164562971Y-118253713D01*
X164615732Y-118181090D01*
X164683287Y-118088110D01*
X164776220Y-117905719D01*
X164839477Y-117711034D01*
X164871500Y-117508852D01*
X164871500Y-116504148D01*
X164839477Y-116301966D01*
X164776220Y-116107281D01*
X164776218Y-116107278D01*
X164776218Y-116107276D01*
X164730515Y-116017580D01*
X164683287Y-115924890D01*
X164675556Y-115914249D01*
X164562971Y-115759286D01*
X164418213Y-115614528D01*
X164252613Y-115494215D01*
X164252612Y-115494214D01*
X164252610Y-115494213D01*
X164195653Y-115465191D01*
X164070223Y-115401281D01*
X163875534Y-115338022D01*
X163700995Y-115310378D01*
X163673352Y-115306000D01*
X163468648Y-115306000D01*
X163444329Y-115309851D01*
X163266465Y-115338022D01*
X163071776Y-115401281D01*
X162889386Y-115494215D01*
X162723786Y-115614528D01*
X162579028Y-115759286D01*
X162458715Y-115924886D01*
X162411485Y-116017580D01*
X162363510Y-116068376D01*
X162295689Y-116085171D01*
X162229554Y-116062634D01*
X162190515Y-116017580D01*
X162189883Y-116016340D01*
X162143287Y-115924890D01*
X162135556Y-115914249D01*
X162022971Y-115759286D01*
X161878213Y-115614528D01*
X161712613Y-115494215D01*
X161712612Y-115494214D01*
X161712610Y-115494213D01*
X161530219Y-115401280D01*
X161450133Y-115375258D01*
X161392458Y-115335821D01*
X161365260Y-115271463D01*
X161370521Y-115219011D01*
X161393674Y-115147756D01*
X161413460Y-114959500D01*
X161393674Y-114771244D01*
X161335179Y-114591216D01*
X161240533Y-114427284D01*
X161113871Y-114286612D01*
X161088858Y-114268439D01*
X160960734Y-114175351D01*
X160960729Y-114175348D01*
X160787807Y-114098357D01*
X160787802Y-114098355D01*
X160642001Y-114067365D01*
X160602646Y-114059000D01*
X160413354Y-114059000D01*
X160373999Y-114067365D01*
X160228198Y-114098355D01*
X160228193Y-114098357D01*
X160199938Y-114110937D01*
X160176400Y-114118705D01*
X160165607Y-114121102D01*
X160165593Y-114121107D01*
X159789845Y-114263147D01*
X159720176Y-114268439D01*
X159702153Y-114263147D01*
X159341141Y-114126677D01*
X159326392Y-114121102D01*
X159289045Y-114108880D01*
X159277179Y-114104311D01*
X159263804Y-114098356D01*
X159171224Y-114078678D01*
X159078646Y-114059000D01*
X158889354Y-114059000D01*
X158856897Y-114065898D01*
X158704197Y-114098355D01*
X158704192Y-114098357D01*
X158531270Y-114175348D01*
X158531265Y-114175351D01*
X158378129Y-114286611D01*
X158251466Y-114427285D01*
X158156821Y-114591215D01*
X158156818Y-114591222D01*
X158122492Y-114696868D01*
X158098326Y-114771244D01*
X158078540Y-114959500D01*
X158098326Y-115147756D01*
X158098327Y-115147759D01*
X158124342Y-115227826D01*
X158126337Y-115297667D01*
X158090256Y-115357500D01*
X158044732Y-115384074D01*
X157991779Y-115401280D01*
X157809386Y-115494215D01*
X157643786Y-115614528D01*
X157499028Y-115759286D01*
X157378715Y-115924886D01*
X157285781Y-116107276D01*
X157222522Y-116301965D01*
X157190500Y-116504148D01*
X142012500Y-116504148D01*
X142012500Y-113949500D01*
X143459157Y-113949500D01*
X144313012Y-113949500D01*
X144295795Y-113959440D01*
X144239940Y-114015295D01*
X144200444Y-114083704D01*
X144180000Y-114160004D01*
X144180000Y-114238996D01*
X144200444Y-114315296D01*
X144239940Y-114383705D01*
X144295795Y-114439560D01*
X144313012Y-114449500D01*
X143459157Y-114449500D01*
X143470350Y-114505774D01*
X143470351Y-114505776D01*
X143549500Y-114696858D01*
X143549505Y-114696868D01*
X143664410Y-114868835D01*
X143664413Y-114868839D01*
X143810660Y-115015086D01*
X143810664Y-115015089D01*
X143982631Y-115129994D01*
X143982641Y-115129999D01*
X144173725Y-115209149D01*
X144173733Y-115209151D01*
X144376579Y-115249499D01*
X144376583Y-115249500D01*
X144530000Y-115249500D01*
X144530000Y-114499500D01*
X145030000Y-114499500D01*
X145030000Y-115249500D01*
X145183417Y-115249500D01*
X145183420Y-115249499D01*
X145386266Y-115209151D01*
X145386274Y-115209149D01*
X145577358Y-115129999D01*
X145577368Y-115129994D01*
X145749335Y-115015089D01*
X145749339Y-115015086D01*
X145895586Y-114868839D01*
X145895589Y-114868835D01*
X146010494Y-114696868D01*
X146010499Y-114696858D01*
X146089648Y-114505776D01*
X146089649Y-114505774D01*
X146100843Y-114449500D01*
X145246988Y-114449500D01*
X145264205Y-114439560D01*
X145320060Y-114383705D01*
X145359556Y-114315296D01*
X145380000Y-114238996D01*
X145380000Y-114160004D01*
X145359556Y-114083704D01*
X145320060Y-114015295D01*
X145264205Y-113959440D01*
X145246988Y-113949500D01*
X146100843Y-113949500D01*
X147259157Y-113949500D01*
X148113012Y-113949500D01*
X148095795Y-113959440D01*
X148039940Y-114015295D01*
X148000444Y-114083704D01*
X147980000Y-114160004D01*
X147980000Y-114238996D01*
X148000444Y-114315296D01*
X148039940Y-114383705D01*
X148095795Y-114439560D01*
X148113012Y-114449500D01*
X147259157Y-114449500D01*
X147270350Y-114505774D01*
X147270351Y-114505776D01*
X147349500Y-114696858D01*
X147349505Y-114696868D01*
X147464410Y-114868835D01*
X147464413Y-114868839D01*
X147610660Y-115015086D01*
X147610664Y-115015089D01*
X147782631Y-115129994D01*
X147782641Y-115129999D01*
X147973725Y-115209149D01*
X147973733Y-115209151D01*
X148176579Y-115249499D01*
X148176583Y-115249500D01*
X148330000Y-115249500D01*
X148330000Y-114499500D01*
X148830000Y-114499500D01*
X148830000Y-115249500D01*
X148983417Y-115249500D01*
X148983420Y-115249499D01*
X149186266Y-115209151D01*
X149186274Y-115209149D01*
X149377358Y-115129999D01*
X149377368Y-115129994D01*
X149549335Y-115015089D01*
X149549339Y-115015086D01*
X149695586Y-114868839D01*
X149695589Y-114868835D01*
X149810494Y-114696868D01*
X149810499Y-114696858D01*
X149889648Y-114505776D01*
X149889649Y-114505774D01*
X149900843Y-114449500D01*
X149046988Y-114449500D01*
X149064205Y-114439560D01*
X149120060Y-114383705D01*
X149159556Y-114315296D01*
X149180000Y-114238996D01*
X149180000Y-114160004D01*
X149159556Y-114083704D01*
X149120060Y-114015295D01*
X149064205Y-113959440D01*
X149046988Y-113949500D01*
X149900843Y-113949500D01*
X149889649Y-113893225D01*
X149889648Y-113893223D01*
X149810499Y-113702141D01*
X149810494Y-113702131D01*
X149695589Y-113530164D01*
X149695586Y-113530160D01*
X149549339Y-113383913D01*
X149549335Y-113383910D01*
X149377368Y-113269005D01*
X149377358Y-113269000D01*
X149186274Y-113189850D01*
X149186266Y-113189848D01*
X148983420Y-113149500D01*
X148830000Y-113149500D01*
X148830000Y-113899500D01*
X148330000Y-113899500D01*
X148330000Y-113149500D01*
X148176579Y-113149500D01*
X147973733Y-113189848D01*
X147973725Y-113189850D01*
X147782641Y-113269000D01*
X147782631Y-113269005D01*
X147610664Y-113383910D01*
X147610660Y-113383913D01*
X147464413Y-113530160D01*
X147464410Y-113530164D01*
X147349505Y-113702131D01*
X147349500Y-113702141D01*
X147270351Y-113893223D01*
X147270350Y-113893225D01*
X147259157Y-113949500D01*
X146100843Y-113949500D01*
X146089649Y-113893225D01*
X146089648Y-113893223D01*
X146010499Y-113702141D01*
X146010494Y-113702131D01*
X145895589Y-113530164D01*
X145895586Y-113530160D01*
X145749339Y-113383913D01*
X145749335Y-113383910D01*
X145577368Y-113269005D01*
X145577358Y-113269000D01*
X145386274Y-113189850D01*
X145386266Y-113189848D01*
X145183420Y-113149500D01*
X145030000Y-113149500D01*
X145030000Y-113899500D01*
X144530000Y-113899500D01*
X144530000Y-113149500D01*
X144376579Y-113149500D01*
X144173733Y-113189848D01*
X144173725Y-113189850D01*
X143982641Y-113269000D01*
X143982631Y-113269005D01*
X143810664Y-113383910D01*
X143810660Y-113383913D01*
X143664413Y-113530160D01*
X143664410Y-113530164D01*
X143549505Y-113702131D01*
X143549500Y-113702141D01*
X143470351Y-113893223D01*
X143470350Y-113893225D01*
X143459157Y-113949500D01*
X142012500Y-113949500D01*
X142012500Y-109879500D01*
X155538540Y-109879500D01*
X155558326Y-110067756D01*
X155558327Y-110067759D01*
X155616820Y-110247783D01*
X155661690Y-110325501D01*
X155678162Y-110393401D01*
X155661690Y-110449499D01*
X155616820Y-110527216D01*
X155565231Y-110685993D01*
X155558326Y-110707244D01*
X155538540Y-110895500D01*
X155558326Y-111083756D01*
X155558327Y-111083759D01*
X155616818Y-111263777D01*
X155616821Y-111263784D01*
X155711467Y-111427716D01*
X155811630Y-111538958D01*
X155838129Y-111568388D01*
X155991265Y-111679648D01*
X155991270Y-111679651D01*
X156164192Y-111756642D01*
X156164197Y-111756644D01*
X156349354Y-111796000D01*
X156349355Y-111796000D01*
X156538644Y-111796000D01*
X156538646Y-111796000D01*
X156723803Y-111756644D01*
X156896730Y-111679651D01*
X157049871Y-111568388D01*
X157060039Y-111557093D01*
X157080403Y-111538958D01*
X157083465Y-111536784D01*
X157322813Y-111309146D01*
X157384955Y-111277211D01*
X157408267Y-111275000D01*
X162745548Y-111275000D01*
X162812587Y-111294685D01*
X162833229Y-111311319D01*
X163067016Y-111545106D01*
X163067045Y-111545137D01*
X163157264Y-111635356D01*
X163157267Y-111635358D01*
X163220353Y-111677510D01*
X163220354Y-111677512D01*
X163240035Y-111690662D01*
X163259715Y-111703812D01*
X163323504Y-111730234D01*
X163373548Y-111750963D01*
X163433971Y-111762981D01*
X163445772Y-111765328D01*
X163470102Y-111772834D01*
X163956222Y-111979607D01*
X163962217Y-111982112D01*
X163962295Y-111982144D01*
X163962307Y-111982148D01*
X163962309Y-111982149D01*
X164014498Y-112000529D01*
X164023745Y-112004209D01*
X164038197Y-112010644D01*
X164223354Y-112050000D01*
X164223355Y-112050000D01*
X164412644Y-112050000D01*
X164412646Y-112050000D01*
X164597803Y-112010644D01*
X164770730Y-111933651D01*
X164923871Y-111822388D01*
X165050533Y-111681716D01*
X165145179Y-111517784D01*
X165203674Y-111337756D01*
X165223460Y-111149500D01*
X165203674Y-110961244D01*
X165145179Y-110781216D01*
X165050533Y-110617284D01*
X165032693Y-110597471D01*
X165002464Y-110534481D01*
X165011089Y-110465146D01*
X165032694Y-110431528D01*
X165050533Y-110411716D01*
X165145179Y-110247784D01*
X165203674Y-110067756D01*
X165223460Y-109879500D01*
X165203674Y-109691244D01*
X165145179Y-109511216D01*
X165050533Y-109347284D01*
X164923871Y-109206612D01*
X164923870Y-109206611D01*
X164770734Y-109095351D01*
X164770729Y-109095348D01*
X164597807Y-109018357D01*
X164597802Y-109018355D01*
X164452001Y-108987365D01*
X164412646Y-108979000D01*
X164223354Y-108979000D01*
X164183999Y-108987365D01*
X164038198Y-109018355D01*
X164038193Y-109018357D01*
X164009938Y-109030937D01*
X163986400Y-109038705D01*
X163975607Y-109041102D01*
X163975593Y-109041107D01*
X163433609Y-109245989D01*
X163389763Y-109254000D01*
X157372236Y-109254000D01*
X157328391Y-109245989D01*
X156957915Y-109105941D01*
X156801140Y-109046677D01*
X156801124Y-109046670D01*
X156786392Y-109041102D01*
X156749045Y-109028880D01*
X156737179Y-109024311D01*
X156723804Y-109018356D01*
X156631224Y-108998678D01*
X156538646Y-108979000D01*
X156349354Y-108979000D01*
X156316897Y-108985898D01*
X156164197Y-109018355D01*
X156164192Y-109018357D01*
X155991270Y-109095348D01*
X155991265Y-109095351D01*
X155838129Y-109206611D01*
X155711466Y-109347285D01*
X155616821Y-109511215D01*
X155616818Y-109511222D01*
X155568301Y-109660544D01*
X155558326Y-109691244D01*
X155538540Y-109879500D01*
X142012500Y-109879500D01*
X142012500Y-107555135D01*
X172639500Y-107555135D01*
X172639500Y-109350870D01*
X172639501Y-109350876D01*
X172645908Y-109410483D01*
X172696202Y-109545328D01*
X172696206Y-109545335D01*
X172782452Y-109660544D01*
X172782455Y-109660547D01*
X172897664Y-109746793D01*
X172897671Y-109746797D01*
X172897674Y-109746798D01*
X173029598Y-109796002D01*
X173085531Y-109837873D01*
X173109949Y-109903337D01*
X173095098Y-109971610D01*
X173073947Y-109999865D01*
X172951886Y-110121926D01*
X172816400Y-110315420D01*
X172816399Y-110315422D01*
X172716570Y-110529507D01*
X172716567Y-110529513D01*
X172659364Y-110742999D01*
X172659364Y-110743000D01*
X173556988Y-110743000D01*
X173524075Y-110800007D01*
X173490000Y-110927174D01*
X173490000Y-111058826D01*
X173524075Y-111185993D01*
X173556988Y-111243000D01*
X172659364Y-111243000D01*
X172716567Y-111456486D01*
X172716570Y-111456492D01*
X172816399Y-111670578D01*
X172951894Y-111864082D01*
X173118917Y-112031105D01*
X173312421Y-112166600D01*
X173526507Y-112266429D01*
X173526516Y-112266433D01*
X173740000Y-112323634D01*
X173740000Y-111426012D01*
X173797007Y-111458925D01*
X173924174Y-111493000D01*
X174055826Y-111493000D01*
X174182993Y-111458925D01*
X174240000Y-111426012D01*
X174240000Y-112323633D01*
X174453483Y-112266433D01*
X174453492Y-112266429D01*
X174667578Y-112166600D01*
X174861082Y-112031105D01*
X175028105Y-111864082D01*
X175163600Y-111670578D01*
X175263429Y-111456492D01*
X175263432Y-111456486D01*
X175320636Y-111243000D01*
X174423012Y-111243000D01*
X174455925Y-111185993D01*
X174490000Y-111058826D01*
X174490000Y-110927174D01*
X174455925Y-110800007D01*
X174423012Y-110743000D01*
X175320636Y-110743000D01*
X175320635Y-110742999D01*
X175263432Y-110529513D01*
X175263429Y-110529507D01*
X175163600Y-110315422D01*
X175163599Y-110315420D01*
X175028113Y-110121926D01*
X175028108Y-110121920D01*
X174906053Y-109999865D01*
X174872568Y-109938542D01*
X174877552Y-109868850D01*
X174919424Y-109812917D01*
X174950400Y-109796002D01*
X175082331Y-109746796D01*
X175197546Y-109660546D01*
X175283796Y-109545331D01*
X175334091Y-109410483D01*
X175340500Y-109350873D01*
X175340499Y-107555128D01*
X175334091Y-107495517D01*
X175283796Y-107360669D01*
X175283795Y-107360668D01*
X175283793Y-107360664D01*
X175197547Y-107245455D01*
X175197544Y-107245452D01*
X175082335Y-107159206D01*
X175082328Y-107159202D01*
X174947482Y-107108908D01*
X174947483Y-107108908D01*
X174887883Y-107102501D01*
X174887881Y-107102500D01*
X174887873Y-107102500D01*
X174887864Y-107102500D01*
X173092129Y-107102500D01*
X173092123Y-107102501D01*
X173032516Y-107108908D01*
X172897671Y-107159202D01*
X172897664Y-107159206D01*
X172782455Y-107245452D01*
X172782452Y-107245455D01*
X172696206Y-107360664D01*
X172696202Y-107360671D01*
X172645908Y-107495517D01*
X172639501Y-107555116D01*
X172639501Y-107555123D01*
X172639500Y-107555135D01*
X142012500Y-107555135D01*
X142012500Y-105309500D01*
X143459157Y-105309500D01*
X144313012Y-105309500D01*
X144295795Y-105319440D01*
X144239940Y-105375295D01*
X144200444Y-105443704D01*
X144180000Y-105520004D01*
X144180000Y-105598996D01*
X144200444Y-105675296D01*
X144239940Y-105743705D01*
X144295795Y-105799560D01*
X144313012Y-105809500D01*
X143459157Y-105809500D01*
X143470350Y-105865774D01*
X143470351Y-105865776D01*
X143549500Y-106056858D01*
X143549505Y-106056868D01*
X143664410Y-106228835D01*
X143664413Y-106228839D01*
X143810660Y-106375086D01*
X143810664Y-106375089D01*
X143982631Y-106489994D01*
X143982641Y-106489999D01*
X144173725Y-106569149D01*
X144173733Y-106569151D01*
X144376579Y-106609499D01*
X144376583Y-106609500D01*
X144530000Y-106609500D01*
X144530000Y-105859500D01*
X145030000Y-105859500D01*
X145030000Y-106609500D01*
X145183417Y-106609500D01*
X145183420Y-106609499D01*
X145386266Y-106569151D01*
X145386274Y-106569149D01*
X145577358Y-106489999D01*
X145577368Y-106489994D01*
X145749335Y-106375089D01*
X145749339Y-106375086D01*
X145895586Y-106228839D01*
X145895589Y-106228835D01*
X146010494Y-106056868D01*
X146010499Y-106056858D01*
X146089648Y-105865776D01*
X146089649Y-105865774D01*
X146100843Y-105809500D01*
X145246988Y-105809500D01*
X145264205Y-105799560D01*
X145320060Y-105743705D01*
X145359556Y-105675296D01*
X145380000Y-105598996D01*
X145380000Y-105520004D01*
X145359556Y-105443704D01*
X145320060Y-105375295D01*
X145264205Y-105319440D01*
X145246988Y-105309500D01*
X146100843Y-105309500D01*
X147259157Y-105309500D01*
X148113012Y-105309500D01*
X148095795Y-105319440D01*
X148039940Y-105375295D01*
X148000444Y-105443704D01*
X147980000Y-105520004D01*
X147980000Y-105598996D01*
X148000444Y-105675296D01*
X148039940Y-105743705D01*
X148095795Y-105799560D01*
X148113012Y-105809500D01*
X147259157Y-105809500D01*
X147270350Y-105865774D01*
X147270351Y-105865776D01*
X147349500Y-106056858D01*
X147349505Y-106056868D01*
X147464410Y-106228835D01*
X147464413Y-106228839D01*
X147610660Y-106375086D01*
X147610664Y-106375089D01*
X147782631Y-106489994D01*
X147782641Y-106489999D01*
X147973725Y-106569149D01*
X147973733Y-106569151D01*
X148176579Y-106609499D01*
X148176583Y-106609500D01*
X148330000Y-106609500D01*
X148330000Y-105859500D01*
X148830000Y-105859500D01*
X148830000Y-106609500D01*
X148983417Y-106609500D01*
X148983420Y-106609499D01*
X149186266Y-106569151D01*
X149186274Y-106569149D01*
X149377358Y-106489999D01*
X149377368Y-106489994D01*
X149549335Y-106375089D01*
X149549339Y-106375086D01*
X149695586Y-106228839D01*
X149695589Y-106228835D01*
X149810494Y-106056868D01*
X149810499Y-106056858D01*
X149889648Y-105865776D01*
X149889649Y-105865774D01*
X149900843Y-105809500D01*
X149046988Y-105809500D01*
X149064205Y-105799560D01*
X149120060Y-105743705D01*
X149159556Y-105675296D01*
X149180000Y-105598996D01*
X149180000Y-105520004D01*
X149159556Y-105443704D01*
X149120060Y-105375295D01*
X149064205Y-105319440D01*
X149046988Y-105309500D01*
X149900843Y-105309500D01*
X149889649Y-105253225D01*
X149889648Y-105253223D01*
X149810499Y-105062141D01*
X149810494Y-105062131D01*
X149695589Y-104890164D01*
X149695586Y-104890160D01*
X149549339Y-104743913D01*
X149549335Y-104743910D01*
X149377368Y-104629005D01*
X149377358Y-104629000D01*
X149186274Y-104549850D01*
X149186266Y-104549848D01*
X148983420Y-104509500D01*
X148830000Y-104509500D01*
X148830000Y-105259500D01*
X148330000Y-105259500D01*
X148330000Y-104509500D01*
X148176579Y-104509500D01*
X147973733Y-104549848D01*
X147973725Y-104549850D01*
X147782641Y-104629000D01*
X147782631Y-104629005D01*
X147610664Y-104743910D01*
X147610660Y-104743913D01*
X147464413Y-104890160D01*
X147464410Y-104890164D01*
X147349505Y-105062131D01*
X147349500Y-105062141D01*
X147270351Y-105253223D01*
X147270350Y-105253225D01*
X147259157Y-105309500D01*
X146100843Y-105309500D01*
X146089649Y-105253225D01*
X146089648Y-105253223D01*
X146010499Y-105062141D01*
X146010494Y-105062131D01*
X145895589Y-104890164D01*
X145895586Y-104890160D01*
X145749339Y-104743913D01*
X145749335Y-104743910D01*
X145577368Y-104629005D01*
X145577358Y-104629000D01*
X145386274Y-104549850D01*
X145386266Y-104549848D01*
X145183420Y-104509500D01*
X145030000Y-104509500D01*
X145030000Y-105259500D01*
X144530000Y-105259500D01*
X144530000Y-104509500D01*
X144376579Y-104509500D01*
X144173733Y-104549848D01*
X144173725Y-104549850D01*
X143982641Y-104629000D01*
X143982631Y-104629005D01*
X143810664Y-104743910D01*
X143810660Y-104743913D01*
X143664413Y-104890160D01*
X143664410Y-104890164D01*
X143549505Y-105062131D01*
X143549500Y-105062141D01*
X143470351Y-105253223D01*
X143470350Y-105253225D01*
X143459157Y-105309500D01*
X142012500Y-105309500D01*
X142012500Y-103124000D01*
X156066540Y-103124000D01*
X156086326Y-103312256D01*
X156086327Y-103312259D01*
X156144818Y-103492277D01*
X156144821Y-103492284D01*
X156239467Y-103656216D01*
X156323461Y-103749500D01*
X156366129Y-103796888D01*
X156519265Y-103908148D01*
X156519270Y-103908151D01*
X156692192Y-103985142D01*
X156692197Y-103985144D01*
X156877354Y-104024500D01*
X156877355Y-104024500D01*
X157066644Y-104024500D01*
X157066646Y-104024500D01*
X157251803Y-103985144D01*
X157280056Y-103972563D01*
X157303607Y-103964792D01*
X157311286Y-103963085D01*
X157314400Y-103962394D01*
X157856389Y-103757510D01*
X157900234Y-103749500D01*
X158329766Y-103749500D01*
X158373610Y-103757510D01*
X158915599Y-103962394D01*
X158915607Y-103962397D01*
X158952958Y-103974621D01*
X158964828Y-103979192D01*
X158978192Y-103985142D01*
X158978197Y-103985144D01*
X159163354Y-104024500D01*
X159163355Y-104024500D01*
X159352644Y-104024500D01*
X159352646Y-104024500D01*
X159537803Y-103985144D01*
X159710730Y-103908151D01*
X159863871Y-103796888D01*
X159990533Y-103656216D01*
X160085179Y-103492284D01*
X160143674Y-103312256D01*
X160163460Y-103124000D01*
X160143674Y-102935744D01*
X160085179Y-102755716D01*
X159990533Y-102591784D01*
X159863871Y-102451112D01*
X159863870Y-102451111D01*
X159710734Y-102339851D01*
X159710729Y-102339848D01*
X159537807Y-102262857D01*
X159537802Y-102262855D01*
X159392001Y-102231865D01*
X159352646Y-102223500D01*
X159163354Y-102223500D01*
X159123999Y-102231865D01*
X158978198Y-102262855D01*
X158978193Y-102262857D01*
X158949938Y-102275437D01*
X158926400Y-102283205D01*
X158915607Y-102285602D01*
X158915593Y-102285607D01*
X158373609Y-102490489D01*
X158329763Y-102498500D01*
X157900236Y-102498500D01*
X157856391Y-102490489D01*
X157485915Y-102350441D01*
X157329140Y-102291177D01*
X157329124Y-102291170D01*
X157314392Y-102285602D01*
X157277045Y-102273380D01*
X157265179Y-102268811D01*
X157251804Y-102262856D01*
X157159224Y-102243178D01*
X157066646Y-102223500D01*
X156877354Y-102223500D01*
X156844897Y-102230398D01*
X156692197Y-102262855D01*
X156692192Y-102262857D01*
X156519270Y-102339848D01*
X156519265Y-102339851D01*
X156366129Y-102451111D01*
X156239466Y-102591785D01*
X156144821Y-102755715D01*
X156144818Y-102755722D01*
X156086327Y-102935740D01*
X156086326Y-102935744D01*
X156066540Y-103124000D01*
X142012500Y-103124000D01*
X142012500Y-100177362D01*
X142032185Y-100110323D01*
X142084989Y-100064568D01*
X142154147Y-100054624D01*
X142217703Y-100083649D01*
X142255477Y-100142427D01*
X142256275Y-100145269D01*
X142272262Y-100204936D01*
X142411244Y-100566994D01*
X142587310Y-100912543D01*
X142798531Y-101237793D01*
X143007095Y-101495350D01*
X143007096Y-101495350D01*
X144501748Y-100000698D01*
X144575588Y-100102330D01*
X144753670Y-100280412D01*
X144855300Y-100354251D01*
X143360648Y-101848903D01*
X143360649Y-101848904D01*
X143618206Y-102057468D01*
X143943456Y-102268689D01*
X144289005Y-102444755D01*
X144651063Y-102583737D01*
X145025669Y-102684112D01*
X145025676Y-102684113D01*
X145408712Y-102744780D01*
X145795999Y-102765078D01*
X145796001Y-102765078D01*
X146183287Y-102744780D01*
X146566323Y-102684113D01*
X146566330Y-102684112D01*
X146940936Y-102583737D01*
X147302994Y-102444755D01*
X147648543Y-102268689D01*
X147973783Y-102057476D01*
X147973785Y-102057475D01*
X148231349Y-101848902D01*
X146736698Y-100354251D01*
X146838330Y-100280412D01*
X147016412Y-100102330D01*
X147090251Y-100000698D01*
X148584902Y-101495349D01*
X148793475Y-101237785D01*
X148793476Y-101237783D01*
X149004689Y-100912543D01*
X149180755Y-100566994D01*
X149319737Y-100204936D01*
X149420112Y-99830330D01*
X149420113Y-99830323D01*
X149480780Y-99447287D01*
X149501078Y-99060000D01*
X149501078Y-99059999D01*
X149480780Y-98672712D01*
X149420113Y-98289676D01*
X149420112Y-98289669D01*
X149319737Y-97915063D01*
X149180755Y-97553005D01*
X149004689Y-97207456D01*
X148793468Y-96882206D01*
X148584904Y-96624649D01*
X148584903Y-96624648D01*
X147090251Y-98119300D01*
X147016412Y-98017670D01*
X146838330Y-97839588D01*
X146736698Y-97765748D01*
X148231350Y-96271096D01*
X148231350Y-96271095D01*
X147973793Y-96062531D01*
X147648543Y-95851310D01*
X147302994Y-95675244D01*
X146940936Y-95536262D01*
X146573374Y-95437775D01*
X146513713Y-95401410D01*
X146483184Y-95338563D01*
X146491479Y-95269187D01*
X146535964Y-95215310D01*
X146602516Y-95194035D01*
X146605467Y-95194000D01*
X171656533Y-95194000D01*
X171723572Y-95213685D01*
G37*
G04 #@! TD.AperFunction*
G04 #@! TA.AperFunction,Conductor*
G36*
X175254902Y-125625349D02*
G01*
X175463475Y-125367785D01*
X175463476Y-125367783D01*
X175674689Y-125042543D01*
X175850755Y-124696994D01*
X175969736Y-124387041D01*
X176012138Y-124331509D01*
X176077832Y-124307716D01*
X176145961Y-124323218D01*
X176194893Y-124373091D01*
X176209500Y-124431479D01*
X176209500Y-126727000D01*
X176189815Y-126794039D01*
X176137011Y-126839794D01*
X176085500Y-126851000D01*
X173922397Y-126851000D01*
X173855358Y-126831315D01*
X173809603Y-126778511D01*
X173799659Y-126709353D01*
X173828684Y-126645797D01*
X173877959Y-126611236D01*
X173972994Y-126574755D01*
X174318543Y-126398689D01*
X174643783Y-126187476D01*
X174643785Y-126187475D01*
X174901349Y-125978902D01*
X173406698Y-124484251D01*
X173508330Y-124410412D01*
X173686412Y-124232330D01*
X173760251Y-124130698D01*
X175254902Y-125625349D01*
G37*
G04 #@! TD.AperFunction*
G04 #@! TA.AperFunction,Conductor*
G36*
X145053572Y-95213685D02*
G01*
X145099327Y-95266489D01*
X145109271Y-95335647D01*
X145080246Y-95399203D01*
X145021468Y-95436977D01*
X145018626Y-95437775D01*
X144651063Y-95536262D01*
X144289005Y-95675244D01*
X143943456Y-95851310D01*
X143618206Y-96062531D01*
X143360648Y-96271095D01*
X143360648Y-96271096D01*
X144855301Y-97765748D01*
X144753670Y-97839588D01*
X144575588Y-98017670D01*
X144501748Y-98119300D01*
X143007096Y-96624648D01*
X143007095Y-96624648D01*
X142798531Y-96882206D01*
X142587310Y-97207456D01*
X142411244Y-97553005D01*
X142272263Y-97915060D01*
X142256275Y-97974731D01*
X142219910Y-98034391D01*
X142157063Y-98064920D01*
X142087687Y-98056625D01*
X142033809Y-98012140D01*
X142012535Y-97945588D01*
X142012500Y-97942637D01*
X142012500Y-95318000D01*
X142032185Y-95250961D01*
X142084989Y-95205206D01*
X142136500Y-95194000D01*
X144986533Y-95194000D01*
X145053572Y-95213685D01*
G37*
G04 #@! TD.AperFunction*
G04 #@! TA.AperFunction,Conductor*
G36*
X176152539Y-95213685D02*
G01*
X176198294Y-95266489D01*
X176209500Y-95318000D01*
X176209500Y-97818520D01*
X176189815Y-97885559D01*
X176137011Y-97931314D01*
X176067853Y-97941258D01*
X176004297Y-97912233D01*
X175969736Y-97862958D01*
X175850755Y-97553005D01*
X175674689Y-97207456D01*
X175463468Y-96882206D01*
X175254904Y-96624649D01*
X175254903Y-96624648D01*
X173760251Y-98119300D01*
X173686412Y-98017670D01*
X173508330Y-97839588D01*
X173406698Y-97765748D01*
X174901350Y-96271096D01*
X174901350Y-96271095D01*
X174643793Y-96062531D01*
X174318543Y-95851310D01*
X173972994Y-95675244D01*
X173610936Y-95536262D01*
X173243374Y-95437775D01*
X173183713Y-95401410D01*
X173153184Y-95338563D01*
X173161479Y-95269187D01*
X173205964Y-95215310D01*
X173272516Y-95194035D01*
X173275467Y-95194000D01*
X176085500Y-95194000D01*
X176152539Y-95213685D01*
G37*
G04 #@! TD.AperFunction*
G04 #@! TA.AperFunction,Conductor*
G36*
X157152696Y-102764890D02*
G01*
X157764437Y-102996141D01*
X157770964Y-103002272D01*
X157772000Y-103007085D01*
X157772000Y-103240914D01*
X157768573Y-103249187D01*
X157764437Y-103251858D01*
X157135655Y-103489551D01*
X157126705Y-103489271D01*
X157120719Y-103483109D01*
X157024306Y-103251858D01*
X156972875Y-103128499D01*
X156972855Y-103119550D01*
X157120719Y-102764889D01*
X157127066Y-102758572D01*
X157135654Y-102758448D01*
X157152696Y-102764890D01*
G37*
G04 #@! TD.AperFunction*
G04 #@! TA.AperFunction,Conductor*
G36*
X159103294Y-102758728D02*
G01*
X159109280Y-102764890D01*
X159257123Y-103119498D01*
X159257144Y-103128452D01*
X159257123Y-103128502D01*
X159109280Y-103483109D01*
X159102933Y-103489427D01*
X159094344Y-103489551D01*
X158465563Y-103251858D01*
X158459036Y-103245727D01*
X158458000Y-103240914D01*
X158458000Y-103007085D01*
X158461427Y-102998812D01*
X158465563Y-102996141D01*
X159094345Y-102758448D01*
X159103294Y-102758728D01*
G37*
G04 #@! TD.AperFunction*
G04 #@! TA.AperFunction,Conductor*
G36*
X164163294Y-109514228D02*
G01*
X164169280Y-109520390D01*
X164317123Y-109874998D01*
X164317144Y-109883952D01*
X164317123Y-109884002D01*
X164169280Y-110238609D01*
X164162933Y-110244927D01*
X164154344Y-110245051D01*
X163525563Y-110007358D01*
X163519036Y-110001227D01*
X163518000Y-109996414D01*
X163518000Y-109762585D01*
X163521427Y-109754312D01*
X163525563Y-109751641D01*
X164154345Y-109513948D01*
X164163294Y-109514228D01*
G37*
G04 #@! TD.AperFunction*
G04 #@! TA.AperFunction,Conductor*
G36*
X156624696Y-109520390D02*
G01*
X157236437Y-109751641D01*
X157242964Y-109757772D01*
X157244000Y-109762585D01*
X157244000Y-109996414D01*
X157240573Y-110004687D01*
X157236437Y-110007358D01*
X156607655Y-110245051D01*
X156598705Y-110244771D01*
X156592719Y-110238609D01*
X156496306Y-110007358D01*
X156444875Y-109883999D01*
X156444855Y-109875050D01*
X156592719Y-109520389D01*
X156599066Y-109514072D01*
X156607654Y-109513948D01*
X156624696Y-109520390D01*
G37*
G04 #@! TD.AperFunction*
G04 #@! TA.AperFunction,Conductor*
G36*
X156456096Y-110495995D02*
G01*
X157140240Y-110524040D01*
X157148366Y-110527803D01*
X157151461Y-110535730D01*
X157151461Y-110769481D01*
X157148034Y-110777754D01*
X157147824Y-110777959D01*
X156735096Y-111170493D01*
X156726740Y-111173711D01*
X156718775Y-111170303D01*
X156446452Y-110898940D01*
X156443012Y-110890674D01*
X156443012Y-110890624D01*
X156443919Y-110527803D01*
X156443969Y-110507656D01*
X156447417Y-110499393D01*
X156455698Y-110495987D01*
X156456096Y-110495995D01*
G37*
G04 #@! TD.AperFunction*
G04 #@! TA.AperFunction,Conductor*
G36*
X164169409Y-110790766D02*
G01*
X164169603Y-110791207D01*
X164316839Y-111145710D01*
X164316848Y-111154665D01*
X164316833Y-111154700D01*
X164169462Y-111508174D01*
X164163115Y-111514492D01*
X164154161Y-111514471D01*
X164154083Y-111514439D01*
X163456691Y-111217801D01*
X163450420Y-111211409D01*
X163450504Y-111202454D01*
X163452995Y-111198764D01*
X163616055Y-111035704D01*
X163619393Y-111033370D01*
X164153871Y-110785083D01*
X164162816Y-110784706D01*
X164169409Y-110790766D01*
G37*
G04 #@! TD.AperFunction*
G04 #@! TA.AperFunction,Conductor*
G36*
X160353294Y-114594228D02*
G01*
X160359280Y-114600390D01*
X160507123Y-114954998D01*
X160507144Y-114963952D01*
X160507123Y-114964002D01*
X160359280Y-115318609D01*
X160352933Y-115324927D01*
X160344344Y-115325051D01*
X159715563Y-115087358D01*
X159709036Y-115081227D01*
X159708000Y-115076414D01*
X159708000Y-114842585D01*
X159711427Y-114834312D01*
X159715563Y-114831641D01*
X160344345Y-114593948D01*
X160353294Y-114594228D01*
G37*
G04 #@! TD.AperFunction*
G04 #@! TA.AperFunction,Conductor*
G36*
X159164696Y-114600390D02*
G01*
X159776437Y-114831641D01*
X159782964Y-114837772D01*
X159784000Y-114842585D01*
X159784000Y-115076414D01*
X159780573Y-115084687D01*
X159776437Y-115087358D01*
X159147655Y-115325051D01*
X159138705Y-115324771D01*
X159132719Y-115318609D01*
X159036306Y-115087358D01*
X158984875Y-114963999D01*
X158984855Y-114955050D01*
X159132719Y-114600389D01*
X159139066Y-114594072D01*
X159147654Y-114593948D01*
X159164696Y-114600390D01*
G37*
G04 #@! TD.AperFunction*
M02*
