G04 #@! TF.GenerationSoftware,KiCad,Pcbnew,8.0.2*
G04 #@! TF.CreationDate,2024-06-03T19:44:32-07:00*
G04 #@! TF.ProjectId,SNES_USB_C_power,534e4553-5f55-4534-925f-435f706f7765,A*
G04 #@! TF.SameCoordinates,Original*
G04 #@! TF.FileFunction,Legend,Top*
G04 #@! TF.FilePolarity,Positive*
%FSLAX46Y46*%
G04 Gerber Fmt 4.6, Leading zero omitted, Abs format (unit mm)*
G04 Created by KiCad (PCBNEW 8.0.2) date 2024-06-03 19:44:32*
%MOMM*%
%LPD*%
G01*
G04 APERTURE LIST*
G04 Aperture macros list*
%AMRoundRect*
0 Rectangle with rounded corners*
0 $1 Rounding radius*
0 $2 $3 $4 $5 $6 $7 $8 $9 X,Y pos of 4 corners*
0 Add a 4 corners polygon primitive as box body*
4,1,4,$2,$3,$4,$5,$6,$7,$8,$9,$2,$3,0*
0 Add four circle primitives for the rounded corners*
1,1,$1+$1,$2,$3*
1,1,$1+$1,$4,$5*
1,1,$1+$1,$6,$7*
1,1,$1+$1,$8,$9*
0 Add four rect primitives between the rounded corners*
20,1,$1+$1,$2,$3,$4,$5,0*
20,1,$1+$1,$4,$5,$6,$7,0*
20,1,$1+$1,$6,$7,$8,$9,0*
20,1,$1+$1,$8,$9,$2,$3,0*%
G04 Aperture macros list end*
%ADD10C,0.150000*%
%ADD11C,0.160000*%
%ADD12C,0.120000*%
%ADD13C,0.100000*%
%ADD14RoundRect,0.218750X-0.218750X-0.256250X0.218750X-0.256250X0.218750X0.256250X-0.218750X0.256250X0*%
%ADD15C,0.800000*%
%ADD16C,6.400000*%
%ADD17R,1.700000X1.700000*%
%ADD18O,1.700000X1.700000*%
%ADD19RoundRect,0.237500X0.237500X-0.250000X0.237500X0.250000X-0.237500X0.250000X-0.237500X-0.250000X0*%
%ADD20RoundRect,0.175000X-0.685000X0.175000X-0.685000X-0.175000X0.685000X-0.175000X0.685000X0.175000X0*%
%ADD21RoundRect,0.190000X-0.670000X0.190000X-0.670000X-0.190000X0.670000X-0.190000X0.670000X0.190000X0*%
%ADD22RoundRect,0.200000X-0.660000X0.200000X-0.660000X-0.200000X0.660000X-0.200000X0.660000X0.200000X0*%
%ADD23O,1.700000X1.100000*%
%ADD24RoundRect,0.237500X-0.237500X0.250000X-0.237500X-0.250000X0.237500X-0.250000X0.237500X0.250000X0*%
%ADD25RoundRect,0.237500X-0.250000X-0.237500X0.250000X-0.237500X0.250000X0.237500X-0.250000X0.237500X0*%
%ADD26RoundRect,0.062500X-0.350000X-0.062500X0.350000X-0.062500X0.350000X0.062500X-0.350000X0.062500X0*%
%ADD27RoundRect,0.062500X-0.062500X-0.350000X0.062500X-0.350000X0.062500X0.350000X-0.062500X0.350000X0*%
%ADD28R,2.700000X2.700000*%
%ADD29RoundRect,0.237500X-0.300000X-0.237500X0.300000X-0.237500X0.300000X0.237500X-0.300000X0.237500X0*%
%ADD30RoundRect,0.250000X-0.337500X-1.450000X0.337500X-1.450000X0.337500X1.450000X-0.337500X1.450000X0*%
%ADD31R,0.650000X0.500000*%
%ADD32R,4.120000X4.600000*%
%ADD33R,0.550000X0.500000*%
%ADD34R,1.600000X2.400000*%
%ADD35O,1.600000X2.400000*%
G04 APERTURE END LIST*
D10*
X152654000Y-117094000D02*
X151892000Y-118364000D01*
X151892000Y-115824000D02*
X152654000Y-117094000D01*
X142494000Y-115824000D02*
X151892000Y-115824000D01*
X151892000Y-118364000D01*
X142494000Y-118364000D01*
X142494000Y-115824000D01*
X153416000Y-124079000D02*
X156464000Y-124079000D01*
X156464000Y-125857000D01*
X153416000Y-125857000D01*
X153416000Y-124079000D01*
X153416000Y-115062000D02*
X156464000Y-115062000D01*
X156464000Y-116840000D01*
X153416000Y-116840000D01*
X153416000Y-115062000D01*
D11*
X153987619Y-124422299D02*
X154178095Y-124422299D01*
X154178095Y-124422299D02*
X154273333Y-124469918D01*
X154273333Y-124469918D02*
X154368571Y-124565156D01*
X154368571Y-124565156D02*
X154416190Y-124755632D01*
X154416190Y-124755632D02*
X154416190Y-125088965D01*
X154416190Y-125088965D02*
X154368571Y-125279441D01*
X154368571Y-125279441D02*
X154273333Y-125374680D01*
X154273333Y-125374680D02*
X154178095Y-125422299D01*
X154178095Y-125422299D02*
X153987619Y-125422299D01*
X153987619Y-125422299D02*
X153892381Y-125374680D01*
X153892381Y-125374680D02*
X153797143Y-125279441D01*
X153797143Y-125279441D02*
X153749524Y-125088965D01*
X153749524Y-125088965D02*
X153749524Y-124755632D01*
X153749524Y-124755632D02*
X153797143Y-124565156D01*
X153797143Y-124565156D02*
X153892381Y-124469918D01*
X153892381Y-124469918D02*
X153987619Y-124422299D01*
X155178095Y-124898489D02*
X154844762Y-124898489D01*
X154844762Y-125422299D02*
X154844762Y-124422299D01*
X154844762Y-124422299D02*
X155320952Y-124422299D01*
X156035238Y-124898489D02*
X155701905Y-124898489D01*
X155701905Y-125422299D02*
X155701905Y-124422299D01*
X155701905Y-124422299D02*
X156178095Y-124422299D01*
X154320952Y-115532299D02*
X154511428Y-115532299D01*
X154511428Y-115532299D02*
X154606666Y-115579918D01*
X154606666Y-115579918D02*
X154701904Y-115675156D01*
X154701904Y-115675156D02*
X154749523Y-115865632D01*
X154749523Y-115865632D02*
X154749523Y-116198965D01*
X154749523Y-116198965D02*
X154701904Y-116389441D01*
X154701904Y-116389441D02*
X154606666Y-116484680D01*
X154606666Y-116484680D02*
X154511428Y-116532299D01*
X154511428Y-116532299D02*
X154320952Y-116532299D01*
X154320952Y-116532299D02*
X154225714Y-116484680D01*
X154225714Y-116484680D02*
X154130476Y-116389441D01*
X154130476Y-116389441D02*
X154082857Y-116198965D01*
X154082857Y-116198965D02*
X154082857Y-115865632D01*
X154082857Y-115865632D02*
X154130476Y-115675156D01*
X154130476Y-115675156D02*
X154225714Y-115579918D01*
X154225714Y-115579918D02*
X154320952Y-115532299D01*
X155178095Y-116532299D02*
X155178095Y-115532299D01*
X155178095Y-115532299D02*
X155749523Y-116532299D01*
X155749523Y-116532299D02*
X155749523Y-115532299D01*
X143629524Y-117548299D02*
X143153334Y-117548299D01*
X143153334Y-117548299D02*
X143153334Y-116548299D01*
X143915239Y-117500680D02*
X144058096Y-117548299D01*
X144058096Y-117548299D02*
X144296191Y-117548299D01*
X144296191Y-117548299D02*
X144391429Y-117500680D01*
X144391429Y-117500680D02*
X144439048Y-117453060D01*
X144439048Y-117453060D02*
X144486667Y-117357822D01*
X144486667Y-117357822D02*
X144486667Y-117262584D01*
X144486667Y-117262584D02*
X144439048Y-117167346D01*
X144439048Y-117167346D02*
X144391429Y-117119727D01*
X144391429Y-117119727D02*
X144296191Y-117072108D01*
X144296191Y-117072108D02*
X144105715Y-117024489D01*
X144105715Y-117024489D02*
X144010477Y-116976870D01*
X144010477Y-116976870D02*
X143962858Y-116929251D01*
X143962858Y-116929251D02*
X143915239Y-116834013D01*
X143915239Y-116834013D02*
X143915239Y-116738775D01*
X143915239Y-116738775D02*
X143962858Y-116643537D01*
X143962858Y-116643537D02*
X144010477Y-116595918D01*
X144010477Y-116595918D02*
X144105715Y-116548299D01*
X144105715Y-116548299D02*
X144343810Y-116548299D01*
X144343810Y-116548299D02*
X144486667Y-116595918D01*
X145248572Y-117024489D02*
X145391429Y-117072108D01*
X145391429Y-117072108D02*
X145439048Y-117119727D01*
X145439048Y-117119727D02*
X145486667Y-117214965D01*
X145486667Y-117214965D02*
X145486667Y-117357822D01*
X145486667Y-117357822D02*
X145439048Y-117453060D01*
X145439048Y-117453060D02*
X145391429Y-117500680D01*
X145391429Y-117500680D02*
X145296191Y-117548299D01*
X145296191Y-117548299D02*
X144915239Y-117548299D01*
X144915239Y-117548299D02*
X144915239Y-116548299D01*
X144915239Y-116548299D02*
X145248572Y-116548299D01*
X145248572Y-116548299D02*
X145343810Y-116595918D01*
X145343810Y-116595918D02*
X145391429Y-116643537D01*
X145391429Y-116643537D02*
X145439048Y-116738775D01*
X145439048Y-116738775D02*
X145439048Y-116834013D01*
X145439048Y-116834013D02*
X145391429Y-116929251D01*
X145391429Y-116929251D02*
X145343810Y-116976870D01*
X145343810Y-116976870D02*
X145248572Y-117024489D01*
X145248572Y-117024489D02*
X144915239Y-117024489D01*
X146677144Y-117453060D02*
X146724763Y-117500680D01*
X146724763Y-117500680D02*
X146677144Y-117548299D01*
X146677144Y-117548299D02*
X146629525Y-117500680D01*
X146629525Y-117500680D02*
X146677144Y-117453060D01*
X146677144Y-117453060D02*
X146677144Y-117548299D01*
X147153334Y-117453060D02*
X147200953Y-117500680D01*
X147200953Y-117500680D02*
X147153334Y-117548299D01*
X147153334Y-117548299D02*
X147105715Y-117500680D01*
X147105715Y-117500680D02*
X147153334Y-117453060D01*
X147153334Y-117453060D02*
X147153334Y-117548299D01*
X147629524Y-117453060D02*
X147677143Y-117500680D01*
X147677143Y-117500680D02*
X147629524Y-117548299D01*
X147629524Y-117548299D02*
X147581905Y-117500680D01*
X147581905Y-117500680D02*
X147629524Y-117453060D01*
X147629524Y-117453060D02*
X147629524Y-117548299D01*
X148867619Y-117548299D02*
X148867619Y-116548299D01*
X148867619Y-116548299D02*
X149200952Y-117262584D01*
X149200952Y-117262584D02*
X149534285Y-116548299D01*
X149534285Y-116548299D02*
X149534285Y-117548299D01*
X149962857Y-117500680D02*
X150105714Y-117548299D01*
X150105714Y-117548299D02*
X150343809Y-117548299D01*
X150343809Y-117548299D02*
X150439047Y-117500680D01*
X150439047Y-117500680D02*
X150486666Y-117453060D01*
X150486666Y-117453060D02*
X150534285Y-117357822D01*
X150534285Y-117357822D02*
X150534285Y-117262584D01*
X150534285Y-117262584D02*
X150486666Y-117167346D01*
X150486666Y-117167346D02*
X150439047Y-117119727D01*
X150439047Y-117119727D02*
X150343809Y-117072108D01*
X150343809Y-117072108D02*
X150153333Y-117024489D01*
X150153333Y-117024489D02*
X150058095Y-116976870D01*
X150058095Y-116976870D02*
X150010476Y-116929251D01*
X150010476Y-116929251D02*
X149962857Y-116834013D01*
X149962857Y-116834013D02*
X149962857Y-116738775D01*
X149962857Y-116738775D02*
X150010476Y-116643537D01*
X150010476Y-116643537D02*
X150058095Y-116595918D01*
X150058095Y-116595918D02*
X150153333Y-116548299D01*
X150153333Y-116548299D02*
X150391428Y-116548299D01*
X150391428Y-116548299D02*
X150534285Y-116595918D01*
X151296190Y-117024489D02*
X151439047Y-117072108D01*
X151439047Y-117072108D02*
X151486666Y-117119727D01*
X151486666Y-117119727D02*
X151534285Y-117214965D01*
X151534285Y-117214965D02*
X151534285Y-117357822D01*
X151534285Y-117357822D02*
X151486666Y-117453060D01*
X151486666Y-117453060D02*
X151439047Y-117500680D01*
X151439047Y-117500680D02*
X151343809Y-117548299D01*
X151343809Y-117548299D02*
X150962857Y-117548299D01*
X150962857Y-117548299D02*
X150962857Y-116548299D01*
X150962857Y-116548299D02*
X151296190Y-116548299D01*
X151296190Y-116548299D02*
X151391428Y-116595918D01*
X151391428Y-116595918D02*
X151439047Y-116643537D01*
X151439047Y-116643537D02*
X151486666Y-116738775D01*
X151486666Y-116738775D02*
X151486666Y-116834013D01*
X151486666Y-116834013D02*
X151439047Y-116929251D01*
X151439047Y-116929251D02*
X151391428Y-116976870D01*
X151391428Y-116976870D02*
X151296190Y-117024489D01*
X151296190Y-117024489D02*
X150962857Y-117024489D01*
X150366405Y-119674299D02*
X150366405Y-118674299D01*
X150366405Y-118674299D02*
X150604500Y-118674299D01*
X150604500Y-118674299D02*
X150747357Y-118721918D01*
X150747357Y-118721918D02*
X150842595Y-118817156D01*
X150842595Y-118817156D02*
X150890214Y-118912394D01*
X150890214Y-118912394D02*
X150937833Y-119102870D01*
X150937833Y-119102870D02*
X150937833Y-119245727D01*
X150937833Y-119245727D02*
X150890214Y-119436203D01*
X150890214Y-119436203D02*
X150842595Y-119531441D01*
X150842595Y-119531441D02*
X150747357Y-119626680D01*
X150747357Y-119626680D02*
X150604500Y-119674299D01*
X150604500Y-119674299D02*
X150366405Y-119674299D01*
X151890214Y-119674299D02*
X151318786Y-119674299D01*
X151604500Y-119674299D02*
X151604500Y-118674299D01*
X151604500Y-118674299D02*
X151509262Y-118817156D01*
X151509262Y-118817156D02*
X151414024Y-118912394D01*
X151414024Y-118912394D02*
X151318786Y-118960013D01*
X173656666Y-105577299D02*
X173656666Y-106291584D01*
X173656666Y-106291584D02*
X173609047Y-106434441D01*
X173609047Y-106434441D02*
X173513809Y-106529680D01*
X173513809Y-106529680D02*
X173370952Y-106577299D01*
X173370952Y-106577299D02*
X173275714Y-106577299D01*
X174085238Y-105672537D02*
X174132857Y-105624918D01*
X174132857Y-105624918D02*
X174228095Y-105577299D01*
X174228095Y-105577299D02*
X174466190Y-105577299D01*
X174466190Y-105577299D02*
X174561428Y-105624918D01*
X174561428Y-105624918D02*
X174609047Y-105672537D01*
X174609047Y-105672537D02*
X174656666Y-105767775D01*
X174656666Y-105767775D02*
X174656666Y-105863013D01*
X174656666Y-105863013D02*
X174609047Y-106005870D01*
X174609047Y-106005870D02*
X174037619Y-106577299D01*
X174037619Y-106577299D02*
X174656666Y-106577299D01*
X151404299Y-111974666D02*
X150928108Y-112307999D01*
X151404299Y-112546094D02*
X150404299Y-112546094D01*
X150404299Y-112546094D02*
X150404299Y-112165142D01*
X150404299Y-112165142D02*
X150451918Y-112069904D01*
X150451918Y-112069904D02*
X150499537Y-112022285D01*
X150499537Y-112022285D02*
X150594775Y-111974666D01*
X150594775Y-111974666D02*
X150737632Y-111974666D01*
X150737632Y-111974666D02*
X150832870Y-112022285D01*
X150832870Y-112022285D02*
X150880489Y-112069904D01*
X150880489Y-112069904D02*
X150928108Y-112165142D01*
X150928108Y-112165142D02*
X150928108Y-112546094D01*
X150404299Y-111641332D02*
X150404299Y-111022285D01*
X150404299Y-111022285D02*
X150785251Y-111355618D01*
X150785251Y-111355618D02*
X150785251Y-111212761D01*
X150785251Y-111212761D02*
X150832870Y-111117523D01*
X150832870Y-111117523D02*
X150880489Y-111069904D01*
X150880489Y-111069904D02*
X150975727Y-111022285D01*
X150975727Y-111022285D02*
X151213822Y-111022285D01*
X151213822Y-111022285D02*
X151309060Y-111069904D01*
X151309060Y-111069904D02*
X151356680Y-111117523D01*
X151356680Y-111117523D02*
X151404299Y-111212761D01*
X151404299Y-111212761D02*
X151404299Y-111498475D01*
X151404299Y-111498475D02*
X151356680Y-111593713D01*
X151356680Y-111593713D02*
X151309060Y-111641332D01*
X148744666Y-103491799D02*
X148744666Y-104206084D01*
X148744666Y-104206084D02*
X148697047Y-104348941D01*
X148697047Y-104348941D02*
X148601809Y-104444180D01*
X148601809Y-104444180D02*
X148458952Y-104491799D01*
X148458952Y-104491799D02*
X148363714Y-104491799D01*
X149744666Y-104491799D02*
X149173238Y-104491799D01*
X149458952Y-104491799D02*
X149458952Y-103491799D01*
X149458952Y-103491799D02*
X149363714Y-103634656D01*
X149363714Y-103634656D02*
X149268476Y-103729894D01*
X149268476Y-103729894D02*
X149173238Y-103777513D01*
X151310299Y-108522166D02*
X150834108Y-108855499D01*
X151310299Y-109093594D02*
X150310299Y-109093594D01*
X150310299Y-109093594D02*
X150310299Y-108712642D01*
X150310299Y-108712642D02*
X150357918Y-108617404D01*
X150357918Y-108617404D02*
X150405537Y-108569785D01*
X150405537Y-108569785D02*
X150500775Y-108522166D01*
X150500775Y-108522166D02*
X150643632Y-108522166D01*
X150643632Y-108522166D02*
X150738870Y-108569785D01*
X150738870Y-108569785D02*
X150786489Y-108617404D01*
X150786489Y-108617404D02*
X150834108Y-108712642D01*
X150834108Y-108712642D02*
X150834108Y-109093594D01*
X150405537Y-108141213D02*
X150357918Y-108093594D01*
X150357918Y-108093594D02*
X150310299Y-107998356D01*
X150310299Y-107998356D02*
X150310299Y-107760261D01*
X150310299Y-107760261D02*
X150357918Y-107665023D01*
X150357918Y-107665023D02*
X150405537Y-107617404D01*
X150405537Y-107617404D02*
X150500775Y-107569785D01*
X150500775Y-107569785D02*
X150596013Y-107569785D01*
X150596013Y-107569785D02*
X150738870Y-107617404D01*
X150738870Y-107617404D02*
X151310299Y-108188832D01*
X151310299Y-108188832D02*
X151310299Y-107569785D01*
X155769333Y-111951799D02*
X155436000Y-111475608D01*
X155197905Y-111951799D02*
X155197905Y-110951799D01*
X155197905Y-110951799D02*
X155578857Y-110951799D01*
X155578857Y-110951799D02*
X155674095Y-110999418D01*
X155674095Y-110999418D02*
X155721714Y-111047037D01*
X155721714Y-111047037D02*
X155769333Y-111142275D01*
X155769333Y-111142275D02*
X155769333Y-111285132D01*
X155769333Y-111285132D02*
X155721714Y-111380370D01*
X155721714Y-111380370D02*
X155674095Y-111427989D01*
X155674095Y-111427989D02*
X155578857Y-111475608D01*
X155578857Y-111475608D02*
X155197905Y-111475608D01*
X156674095Y-110951799D02*
X156197905Y-110951799D01*
X156197905Y-110951799D02*
X156150286Y-111427989D01*
X156150286Y-111427989D02*
X156197905Y-111380370D01*
X156197905Y-111380370D02*
X156293143Y-111332751D01*
X156293143Y-111332751D02*
X156531238Y-111332751D01*
X156531238Y-111332751D02*
X156626476Y-111380370D01*
X156626476Y-111380370D02*
X156674095Y-111427989D01*
X156674095Y-111427989D02*
X156721714Y-111523227D01*
X156721714Y-111523227D02*
X156721714Y-111761322D01*
X156721714Y-111761322D02*
X156674095Y-111856560D01*
X156674095Y-111856560D02*
X156626476Y-111904180D01*
X156626476Y-111904180D02*
X156531238Y-111951799D01*
X156531238Y-111951799D02*
X156293143Y-111951799D01*
X156293143Y-111951799D02*
X156197905Y-111904180D01*
X156197905Y-111904180D02*
X156150286Y-111856560D01*
X166390299Y-118682166D02*
X165914108Y-119015499D01*
X166390299Y-119253594D02*
X165390299Y-119253594D01*
X165390299Y-119253594D02*
X165390299Y-118872642D01*
X165390299Y-118872642D02*
X165437918Y-118777404D01*
X165437918Y-118777404D02*
X165485537Y-118729785D01*
X165485537Y-118729785D02*
X165580775Y-118682166D01*
X165580775Y-118682166D02*
X165723632Y-118682166D01*
X165723632Y-118682166D02*
X165818870Y-118729785D01*
X165818870Y-118729785D02*
X165866489Y-118777404D01*
X165866489Y-118777404D02*
X165914108Y-118872642D01*
X165914108Y-118872642D02*
X165914108Y-119253594D01*
X165818870Y-118110737D02*
X165771251Y-118205975D01*
X165771251Y-118205975D02*
X165723632Y-118253594D01*
X165723632Y-118253594D02*
X165628394Y-118301213D01*
X165628394Y-118301213D02*
X165580775Y-118301213D01*
X165580775Y-118301213D02*
X165485537Y-118253594D01*
X165485537Y-118253594D02*
X165437918Y-118205975D01*
X165437918Y-118205975D02*
X165390299Y-118110737D01*
X165390299Y-118110737D02*
X165390299Y-117920261D01*
X165390299Y-117920261D02*
X165437918Y-117825023D01*
X165437918Y-117825023D02*
X165485537Y-117777404D01*
X165485537Y-117777404D02*
X165580775Y-117729785D01*
X165580775Y-117729785D02*
X165628394Y-117729785D01*
X165628394Y-117729785D02*
X165723632Y-117777404D01*
X165723632Y-117777404D02*
X165771251Y-117825023D01*
X165771251Y-117825023D02*
X165818870Y-117920261D01*
X165818870Y-117920261D02*
X165818870Y-118110737D01*
X165818870Y-118110737D02*
X165866489Y-118205975D01*
X165866489Y-118205975D02*
X165914108Y-118253594D01*
X165914108Y-118253594D02*
X166009346Y-118301213D01*
X166009346Y-118301213D02*
X166199822Y-118301213D01*
X166199822Y-118301213D02*
X166295060Y-118253594D01*
X166295060Y-118253594D02*
X166342680Y-118205975D01*
X166342680Y-118205975D02*
X166390299Y-118110737D01*
X166390299Y-118110737D02*
X166390299Y-117920261D01*
X166390299Y-117920261D02*
X166342680Y-117825023D01*
X166342680Y-117825023D02*
X166295060Y-117777404D01*
X166295060Y-117777404D02*
X166199822Y-117729785D01*
X166199822Y-117729785D02*
X166009346Y-117729785D01*
X166009346Y-117729785D02*
X165914108Y-117777404D01*
X165914108Y-117777404D02*
X165866489Y-117825023D01*
X165866489Y-117825023D02*
X165818870Y-117920261D01*
X160254095Y-107781799D02*
X160254095Y-108591322D01*
X160254095Y-108591322D02*
X160301714Y-108686560D01*
X160301714Y-108686560D02*
X160349333Y-108734180D01*
X160349333Y-108734180D02*
X160444571Y-108781799D01*
X160444571Y-108781799D02*
X160635047Y-108781799D01*
X160635047Y-108781799D02*
X160730285Y-108734180D01*
X160730285Y-108734180D02*
X160777904Y-108686560D01*
X160777904Y-108686560D02*
X160825523Y-108591322D01*
X160825523Y-108591322D02*
X160825523Y-107781799D01*
X161825523Y-108781799D02*
X161254095Y-108781799D01*
X161539809Y-108781799D02*
X161539809Y-107781799D01*
X161539809Y-107781799D02*
X161444571Y-107924656D01*
X161444571Y-107924656D02*
X161349333Y-108019894D01*
X161349333Y-108019894D02*
X161254095Y-108067513D01*
X170220299Y-110013357D02*
X169744108Y-110346690D01*
X170220299Y-110584785D02*
X169220299Y-110584785D01*
X169220299Y-110584785D02*
X169220299Y-110203833D01*
X169220299Y-110203833D02*
X169267918Y-110108595D01*
X169267918Y-110108595D02*
X169315537Y-110060976D01*
X169315537Y-110060976D02*
X169410775Y-110013357D01*
X169410775Y-110013357D02*
X169553632Y-110013357D01*
X169553632Y-110013357D02*
X169648870Y-110060976D01*
X169648870Y-110060976D02*
X169696489Y-110108595D01*
X169696489Y-110108595D02*
X169744108Y-110203833D01*
X169744108Y-110203833D02*
X169744108Y-110584785D01*
X170220299Y-109060976D02*
X170220299Y-109632404D01*
X170220299Y-109346690D02*
X169220299Y-109346690D01*
X169220299Y-109346690D02*
X169363156Y-109441928D01*
X169363156Y-109441928D02*
X169458394Y-109537166D01*
X169458394Y-109537166D02*
X169506013Y-109632404D01*
X169220299Y-108441928D02*
X169220299Y-108346690D01*
X169220299Y-108346690D02*
X169267918Y-108251452D01*
X169267918Y-108251452D02*
X169315537Y-108203833D01*
X169315537Y-108203833D02*
X169410775Y-108156214D01*
X169410775Y-108156214D02*
X169601251Y-108108595D01*
X169601251Y-108108595D02*
X169839346Y-108108595D01*
X169839346Y-108108595D02*
X170029822Y-108156214D01*
X170029822Y-108156214D02*
X170125060Y-108203833D01*
X170125060Y-108203833D02*
X170172680Y-108251452D01*
X170172680Y-108251452D02*
X170220299Y-108346690D01*
X170220299Y-108346690D02*
X170220299Y-108441928D01*
X170220299Y-108441928D02*
X170172680Y-108537166D01*
X170172680Y-108537166D02*
X170125060Y-108584785D01*
X170125060Y-108584785D02*
X170029822Y-108632404D01*
X170029822Y-108632404D02*
X169839346Y-108680023D01*
X169839346Y-108680023D02*
X169601251Y-108680023D01*
X169601251Y-108680023D02*
X169410775Y-108632404D01*
X169410775Y-108632404D02*
X169315537Y-108584785D01*
X169315537Y-108584785D02*
X169267918Y-108537166D01*
X169267918Y-108537166D02*
X169220299Y-108441928D01*
X167199333Y-112618560D02*
X167151714Y-112666180D01*
X167151714Y-112666180D02*
X167008857Y-112713799D01*
X167008857Y-112713799D02*
X166913619Y-112713799D01*
X166913619Y-112713799D02*
X166770762Y-112666180D01*
X166770762Y-112666180D02*
X166675524Y-112570941D01*
X166675524Y-112570941D02*
X166627905Y-112475703D01*
X166627905Y-112475703D02*
X166580286Y-112285227D01*
X166580286Y-112285227D02*
X166580286Y-112142370D01*
X166580286Y-112142370D02*
X166627905Y-111951894D01*
X166627905Y-111951894D02*
X166675524Y-111856656D01*
X166675524Y-111856656D02*
X166770762Y-111761418D01*
X166770762Y-111761418D02*
X166913619Y-111713799D01*
X166913619Y-111713799D02*
X167008857Y-111713799D01*
X167008857Y-111713799D02*
X167151714Y-111761418D01*
X167151714Y-111761418D02*
X167199333Y-111809037D01*
X167532667Y-111713799D02*
X168151714Y-111713799D01*
X168151714Y-111713799D02*
X167818381Y-112094751D01*
X167818381Y-112094751D02*
X167961238Y-112094751D01*
X167961238Y-112094751D02*
X168056476Y-112142370D01*
X168056476Y-112142370D02*
X168104095Y-112189989D01*
X168104095Y-112189989D02*
X168151714Y-112285227D01*
X168151714Y-112285227D02*
X168151714Y-112523322D01*
X168151714Y-112523322D02*
X168104095Y-112618560D01*
X168104095Y-112618560D02*
X168056476Y-112666180D01*
X168056476Y-112666180D02*
X167961238Y-112713799D01*
X167961238Y-112713799D02*
X167675524Y-112713799D01*
X167675524Y-112713799D02*
X167580286Y-112666180D01*
X167580286Y-112666180D02*
X167532667Y-112618560D01*
X167199333Y-109570560D02*
X167151714Y-109618180D01*
X167151714Y-109618180D02*
X167008857Y-109665799D01*
X167008857Y-109665799D02*
X166913619Y-109665799D01*
X166913619Y-109665799D02*
X166770762Y-109618180D01*
X166770762Y-109618180D02*
X166675524Y-109522941D01*
X166675524Y-109522941D02*
X166627905Y-109427703D01*
X166627905Y-109427703D02*
X166580286Y-109237227D01*
X166580286Y-109237227D02*
X166580286Y-109094370D01*
X166580286Y-109094370D02*
X166627905Y-108903894D01*
X166627905Y-108903894D02*
X166675524Y-108808656D01*
X166675524Y-108808656D02*
X166770762Y-108713418D01*
X166770762Y-108713418D02*
X166913619Y-108665799D01*
X166913619Y-108665799D02*
X167008857Y-108665799D01*
X167008857Y-108665799D02*
X167151714Y-108713418D01*
X167151714Y-108713418D02*
X167199333Y-108761037D01*
X168151714Y-109665799D02*
X167580286Y-109665799D01*
X167866000Y-109665799D02*
X167866000Y-108665799D01*
X167866000Y-108665799D02*
X167770762Y-108808656D01*
X167770762Y-108808656D02*
X167675524Y-108903894D01*
X167675524Y-108903894D02*
X167580286Y-108951513D01*
X163028761Y-96649537D02*
X162933523Y-96601918D01*
X162933523Y-96601918D02*
X162838285Y-96506680D01*
X162838285Y-96506680D02*
X162695428Y-96363822D01*
X162695428Y-96363822D02*
X162600190Y-96316203D01*
X162600190Y-96316203D02*
X162504952Y-96316203D01*
X162552571Y-96554299D02*
X162457333Y-96506680D01*
X162457333Y-96506680D02*
X162362095Y-96411441D01*
X162362095Y-96411441D02*
X162314476Y-96220965D01*
X162314476Y-96220965D02*
X162314476Y-95887632D01*
X162314476Y-95887632D02*
X162362095Y-95697156D01*
X162362095Y-95697156D02*
X162457333Y-95601918D01*
X162457333Y-95601918D02*
X162552571Y-95554299D01*
X162552571Y-95554299D02*
X162743047Y-95554299D01*
X162743047Y-95554299D02*
X162838285Y-95601918D01*
X162838285Y-95601918D02*
X162933523Y-95697156D01*
X162933523Y-95697156D02*
X162981142Y-95887632D01*
X162981142Y-95887632D02*
X162981142Y-96220965D01*
X162981142Y-96220965D02*
X162933523Y-96411441D01*
X162933523Y-96411441D02*
X162838285Y-96506680D01*
X162838285Y-96506680D02*
X162743047Y-96554299D01*
X162743047Y-96554299D02*
X162552571Y-96554299D01*
X163362095Y-95649537D02*
X163409714Y-95601918D01*
X163409714Y-95601918D02*
X163504952Y-95554299D01*
X163504952Y-95554299D02*
X163743047Y-95554299D01*
X163743047Y-95554299D02*
X163838285Y-95601918D01*
X163838285Y-95601918D02*
X163885904Y-95649537D01*
X163885904Y-95649537D02*
X163933523Y-95744775D01*
X163933523Y-95744775D02*
X163933523Y-95840013D01*
X163933523Y-95840013D02*
X163885904Y-95982870D01*
X163885904Y-95982870D02*
X163314476Y-96554299D01*
X163314476Y-96554299D02*
X163933523Y-96554299D01*
X170380299Y-114720666D02*
X169904108Y-115053999D01*
X170380299Y-115292094D02*
X169380299Y-115292094D01*
X169380299Y-115292094D02*
X169380299Y-114911142D01*
X169380299Y-114911142D02*
X169427918Y-114815904D01*
X169427918Y-114815904D02*
X169475537Y-114768285D01*
X169475537Y-114768285D02*
X169570775Y-114720666D01*
X169570775Y-114720666D02*
X169713632Y-114720666D01*
X169713632Y-114720666D02*
X169808870Y-114768285D01*
X169808870Y-114768285D02*
X169856489Y-114815904D01*
X169856489Y-114815904D02*
X169904108Y-114911142D01*
X169904108Y-114911142D02*
X169904108Y-115292094D01*
X170380299Y-114244475D02*
X170380299Y-114053999D01*
X170380299Y-114053999D02*
X170332680Y-113958761D01*
X170332680Y-113958761D02*
X170285060Y-113911142D01*
X170285060Y-113911142D02*
X170142203Y-113815904D01*
X170142203Y-113815904D02*
X169951727Y-113768285D01*
X169951727Y-113768285D02*
X169570775Y-113768285D01*
X169570775Y-113768285D02*
X169475537Y-113815904D01*
X169475537Y-113815904D02*
X169427918Y-113863523D01*
X169427918Y-113863523D02*
X169380299Y-113958761D01*
X169380299Y-113958761D02*
X169380299Y-114149237D01*
X169380299Y-114149237D02*
X169427918Y-114244475D01*
X169427918Y-114244475D02*
X169475537Y-114292094D01*
X169475537Y-114292094D02*
X169570775Y-114339713D01*
X169570775Y-114339713D02*
X169808870Y-114339713D01*
X169808870Y-114339713D02*
X169904108Y-114292094D01*
X169904108Y-114292094D02*
X169951727Y-114244475D01*
X169951727Y-114244475D02*
X169999346Y-114149237D01*
X169999346Y-114149237D02*
X169999346Y-113958761D01*
X169999346Y-113958761D02*
X169951727Y-113863523D01*
X169951727Y-113863523D02*
X169904108Y-113815904D01*
X169904108Y-113815904D02*
X169808870Y-113768285D01*
X153944299Y-122492166D02*
X153468108Y-122825499D01*
X153944299Y-123063594D02*
X152944299Y-123063594D01*
X152944299Y-123063594D02*
X152944299Y-122682642D01*
X152944299Y-122682642D02*
X152991918Y-122587404D01*
X152991918Y-122587404D02*
X153039537Y-122539785D01*
X153039537Y-122539785D02*
X153134775Y-122492166D01*
X153134775Y-122492166D02*
X153277632Y-122492166D01*
X153277632Y-122492166D02*
X153372870Y-122539785D01*
X153372870Y-122539785D02*
X153420489Y-122587404D01*
X153420489Y-122587404D02*
X153468108Y-122682642D01*
X153468108Y-122682642D02*
X153468108Y-123063594D01*
X152944299Y-122158832D02*
X152944299Y-121492166D01*
X152944299Y-121492166D02*
X153944299Y-121920737D01*
X156567680Y-122149832D02*
X156615299Y-122006975D01*
X156615299Y-122006975D02*
X156615299Y-121768880D01*
X156615299Y-121768880D02*
X156567680Y-121673642D01*
X156567680Y-121673642D02*
X156520060Y-121626023D01*
X156520060Y-121626023D02*
X156424822Y-121578404D01*
X156424822Y-121578404D02*
X156329584Y-121578404D01*
X156329584Y-121578404D02*
X156234346Y-121626023D01*
X156234346Y-121626023D02*
X156186727Y-121673642D01*
X156186727Y-121673642D02*
X156139108Y-121768880D01*
X156139108Y-121768880D02*
X156091489Y-121959356D01*
X156091489Y-121959356D02*
X156043870Y-122054594D01*
X156043870Y-122054594D02*
X155996251Y-122102213D01*
X155996251Y-122102213D02*
X155901013Y-122149832D01*
X155901013Y-122149832D02*
X155805775Y-122149832D01*
X155805775Y-122149832D02*
X155710537Y-122102213D01*
X155710537Y-122102213D02*
X155662918Y-122054594D01*
X155662918Y-122054594D02*
X155615299Y-121959356D01*
X155615299Y-121959356D02*
X155615299Y-121721261D01*
X155615299Y-121721261D02*
X155662918Y-121578404D01*
X155615299Y-121245070D02*
X156615299Y-121006975D01*
X156615299Y-121006975D02*
X155901013Y-120816499D01*
X155901013Y-120816499D02*
X156615299Y-120626023D01*
X156615299Y-120626023D02*
X155615299Y-120387928D01*
X156615299Y-119483166D02*
X156615299Y-120054594D01*
X156615299Y-119768880D02*
X155615299Y-119768880D01*
X155615299Y-119768880D02*
X155758156Y-119864118D01*
X155758156Y-119864118D02*
X155853394Y-119959356D01*
X155853394Y-119959356D02*
X155901013Y-120054594D01*
X165421333Y-106522560D02*
X165373714Y-106570180D01*
X165373714Y-106570180D02*
X165230857Y-106617799D01*
X165230857Y-106617799D02*
X165135619Y-106617799D01*
X165135619Y-106617799D02*
X164992762Y-106570180D01*
X164992762Y-106570180D02*
X164897524Y-106474941D01*
X164897524Y-106474941D02*
X164849905Y-106379703D01*
X164849905Y-106379703D02*
X164802286Y-106189227D01*
X164802286Y-106189227D02*
X164802286Y-106046370D01*
X164802286Y-106046370D02*
X164849905Y-105855894D01*
X164849905Y-105855894D02*
X164897524Y-105760656D01*
X164897524Y-105760656D02*
X164992762Y-105665418D01*
X164992762Y-105665418D02*
X165135619Y-105617799D01*
X165135619Y-105617799D02*
X165230857Y-105617799D01*
X165230857Y-105617799D02*
X165373714Y-105665418D01*
X165373714Y-105665418D02*
X165421333Y-105713037D01*
X165802286Y-105713037D02*
X165849905Y-105665418D01*
X165849905Y-105665418D02*
X165945143Y-105617799D01*
X165945143Y-105617799D02*
X166183238Y-105617799D01*
X166183238Y-105617799D02*
X166278476Y-105665418D01*
X166278476Y-105665418D02*
X166326095Y-105713037D01*
X166326095Y-105713037D02*
X166373714Y-105808275D01*
X166373714Y-105808275D02*
X166373714Y-105903513D01*
X166373714Y-105903513D02*
X166326095Y-106046370D01*
X166326095Y-106046370D02*
X165754667Y-106617799D01*
X165754667Y-106617799D02*
X166373714Y-106617799D01*
X160294299Y-105728166D02*
X159818108Y-106061499D01*
X160294299Y-106299594D02*
X159294299Y-106299594D01*
X159294299Y-106299594D02*
X159294299Y-105918642D01*
X159294299Y-105918642D02*
X159341918Y-105823404D01*
X159341918Y-105823404D02*
X159389537Y-105775785D01*
X159389537Y-105775785D02*
X159484775Y-105728166D01*
X159484775Y-105728166D02*
X159627632Y-105728166D01*
X159627632Y-105728166D02*
X159722870Y-105775785D01*
X159722870Y-105775785D02*
X159770489Y-105823404D01*
X159770489Y-105823404D02*
X159818108Y-105918642D01*
X159818108Y-105918642D02*
X159818108Y-106299594D01*
X159627632Y-104871023D02*
X160294299Y-104871023D01*
X159246680Y-105109118D02*
X159960965Y-105347213D01*
X159960965Y-105347213D02*
X159960965Y-104728166D01*
X153944299Y-118682166D02*
X153468108Y-119015499D01*
X153944299Y-119253594D02*
X152944299Y-119253594D01*
X152944299Y-119253594D02*
X152944299Y-118872642D01*
X152944299Y-118872642D02*
X152991918Y-118777404D01*
X152991918Y-118777404D02*
X153039537Y-118729785D01*
X153039537Y-118729785D02*
X153134775Y-118682166D01*
X153134775Y-118682166D02*
X153277632Y-118682166D01*
X153277632Y-118682166D02*
X153372870Y-118729785D01*
X153372870Y-118729785D02*
X153420489Y-118777404D01*
X153420489Y-118777404D02*
X153468108Y-118872642D01*
X153468108Y-118872642D02*
X153468108Y-119253594D01*
X152944299Y-117825023D02*
X152944299Y-118015499D01*
X152944299Y-118015499D02*
X152991918Y-118110737D01*
X152991918Y-118110737D02*
X153039537Y-118158356D01*
X153039537Y-118158356D02*
X153182394Y-118253594D01*
X153182394Y-118253594D02*
X153372870Y-118301213D01*
X153372870Y-118301213D02*
X153753822Y-118301213D01*
X153753822Y-118301213D02*
X153849060Y-118253594D01*
X153849060Y-118253594D02*
X153896680Y-118205975D01*
X153896680Y-118205975D02*
X153944299Y-118110737D01*
X153944299Y-118110737D02*
X153944299Y-117920261D01*
X153944299Y-117920261D02*
X153896680Y-117825023D01*
X153896680Y-117825023D02*
X153849060Y-117777404D01*
X153849060Y-117777404D02*
X153753822Y-117729785D01*
X153753822Y-117729785D02*
X153515727Y-117729785D01*
X153515727Y-117729785D02*
X153420489Y-117777404D01*
X153420489Y-117777404D02*
X153372870Y-117825023D01*
X153372870Y-117825023D02*
X153325251Y-117920261D01*
X153325251Y-117920261D02*
X153325251Y-118110737D01*
X153325251Y-118110737D02*
X153372870Y-118205975D01*
X153372870Y-118205975D02*
X153420489Y-118253594D01*
X153420489Y-118253594D02*
X153515727Y-118301213D01*
X155408761Y-96649537D02*
X155313523Y-96601918D01*
X155313523Y-96601918D02*
X155218285Y-96506680D01*
X155218285Y-96506680D02*
X155075428Y-96363822D01*
X155075428Y-96363822D02*
X154980190Y-96316203D01*
X154980190Y-96316203D02*
X154884952Y-96316203D01*
X154932571Y-96554299D02*
X154837333Y-96506680D01*
X154837333Y-96506680D02*
X154742095Y-96411441D01*
X154742095Y-96411441D02*
X154694476Y-96220965D01*
X154694476Y-96220965D02*
X154694476Y-95887632D01*
X154694476Y-95887632D02*
X154742095Y-95697156D01*
X154742095Y-95697156D02*
X154837333Y-95601918D01*
X154837333Y-95601918D02*
X154932571Y-95554299D01*
X154932571Y-95554299D02*
X155123047Y-95554299D01*
X155123047Y-95554299D02*
X155218285Y-95601918D01*
X155218285Y-95601918D02*
X155313523Y-95697156D01*
X155313523Y-95697156D02*
X155361142Y-95887632D01*
X155361142Y-95887632D02*
X155361142Y-96220965D01*
X155361142Y-96220965D02*
X155313523Y-96411441D01*
X155313523Y-96411441D02*
X155218285Y-96506680D01*
X155218285Y-96506680D02*
X155123047Y-96554299D01*
X155123047Y-96554299D02*
X154932571Y-96554299D01*
X156313523Y-96554299D02*
X155742095Y-96554299D01*
X156027809Y-96554299D02*
X156027809Y-95554299D01*
X156027809Y-95554299D02*
X155932571Y-95697156D01*
X155932571Y-95697156D02*
X155837333Y-95792394D01*
X155837333Y-95792394D02*
X155742095Y-95840013D01*
D12*
X149619500Y-119915000D02*
X149619500Y-121385000D01*
X149619500Y-121385000D02*
X151904500Y-121385000D01*
X151904500Y-119915000D02*
X149619500Y-119915000D01*
X172660000Y-107123000D02*
X173990000Y-107123000D01*
X172660000Y-108453000D02*
X172660000Y-107123000D01*
X172660000Y-109723000D02*
X172660000Y-112323000D01*
X172660000Y-109723000D02*
X175320000Y-109723000D01*
X172660000Y-112323000D02*
X175320000Y-112323000D01*
X175320000Y-109723000D02*
X175320000Y-112323000D01*
X151857500Y-112062724D02*
X151857500Y-111553276D01*
X152902500Y-112062724D02*
X152902500Y-111553276D01*
D13*
X142180000Y-105409500D02*
X143780000Y-105409500D01*
X142180000Y-114349500D02*
X142180000Y-105409500D01*
X143780000Y-114349500D02*
X142180000Y-114349500D01*
X145780000Y-105409500D02*
X147580000Y-105409500D01*
X147580000Y-114349500D02*
X145780000Y-114349500D01*
X148980000Y-106279500D02*
X148980000Y-106579500D01*
X148980000Y-107629500D02*
X148980000Y-107879500D01*
X148980000Y-108829500D02*
X148980000Y-108929500D01*
X148980000Y-109829500D02*
X148980000Y-109929500D01*
X148980000Y-110829500D02*
X148980000Y-110929500D01*
X148980000Y-111879500D02*
X148980000Y-112129500D01*
X148980000Y-113179500D02*
X148980000Y-113479500D01*
D12*
X151857500Y-108100776D02*
X151857500Y-108610224D01*
X152902500Y-108100776D02*
X152902500Y-108610224D01*
X155681276Y-112405000D02*
X156190724Y-112405000D01*
X155681276Y-113450000D02*
X156190724Y-113450000D01*
X166843500Y-118770224D02*
X166843500Y-118260776D01*
X167888500Y-118770224D02*
X167888500Y-118260776D01*
X158906000Y-110022500D02*
X158906000Y-109787500D01*
X158906000Y-113767500D02*
X158906000Y-113292500D01*
X159381000Y-109547500D02*
X159206000Y-109547500D01*
X159381000Y-113767500D02*
X158906000Y-113767500D01*
X162651000Y-109547500D02*
X163126000Y-109547500D01*
X162651000Y-113767500D02*
X163126000Y-113767500D01*
X163126000Y-109547500D02*
X163126000Y-110022500D01*
X163126000Y-113767500D02*
X163126000Y-113292500D01*
X158906000Y-109547500D02*
X158666000Y-109217500D01*
X159146000Y-109217500D01*
X158906000Y-109547500D01*
G36*
X158906000Y-109547500D02*
G01*
X158666000Y-109217500D01*
X159146000Y-109217500D01*
X158906000Y-109547500D01*
G37*
X170673500Y-109625224D02*
X170673500Y-109115776D01*
X171718500Y-109625224D02*
X171718500Y-109115776D01*
X167219733Y-113179500D02*
X167512267Y-113179500D01*
X167219733Y-114199500D02*
X167512267Y-114199500D01*
X167219733Y-110131500D02*
X167512267Y-110131500D01*
X167219733Y-111151500D02*
X167512267Y-111151500D01*
X157201517Y-104105500D02*
X157567483Y-104105500D01*
X157201517Y-107525500D02*
X157567483Y-107525500D01*
X160349000Y-97070000D02*
X165899000Y-97070000D01*
X160349000Y-102490000D02*
X165899000Y-102490000D01*
X160104000Y-97360000D02*
X159624000Y-97360000D01*
X160104000Y-96880000D01*
X160104000Y-97360000D01*
G36*
X160104000Y-97360000D02*
G01*
X159624000Y-97360000D01*
X160104000Y-96880000D01*
X160104000Y-97360000D01*
G37*
X170927500Y-114808724D02*
X170927500Y-114299276D01*
X171972500Y-114808724D02*
X171972500Y-114299276D01*
X154397500Y-122580224D02*
X154397500Y-122070776D01*
X155442500Y-122580224D02*
X155442500Y-122070776D01*
X157161000Y-118566500D02*
X157161000Y-119816500D01*
X157161000Y-121816500D02*
X157161000Y-123066500D01*
X157161000Y-123066500D02*
X164901000Y-123066500D01*
X164901000Y-118566500D02*
X157161000Y-118566500D01*
X164901000Y-123066500D02*
X164901000Y-118566500D01*
X157161000Y-119816500D02*
G75*
G02*
X157161000Y-121816500I0J-1000000D01*
G01*
X165441733Y-107083500D02*
X165734267Y-107083500D01*
X165441733Y-108103500D02*
X165734267Y-108103500D01*
X160747500Y-105816224D02*
X160747500Y-105306776D01*
X161792500Y-105816224D02*
X161792500Y-105306776D01*
X154397500Y-118770224D02*
X154397500Y-118260776D01*
X155442500Y-118770224D02*
X155442500Y-118260776D01*
X152729000Y-97070000D02*
X158279000Y-97070000D01*
X152729000Y-102490000D02*
X158279000Y-102490000D01*
X152484000Y-97360000D02*
X152004000Y-97360000D01*
X152484000Y-96880000D01*
X152484000Y-97360000D01*
G36*
X152484000Y-97360000D02*
G01*
X152004000Y-97360000D01*
X152484000Y-96880000D01*
X152484000Y-97360000D01*
G37*
%LPC*%
D14*
X150317000Y-120650000D03*
X151892000Y-120650000D03*
D15*
X170066000Y-99060000D03*
X170768944Y-97362944D03*
X170768944Y-100757056D03*
X172466000Y-96660000D03*
D16*
X172466000Y-99060000D03*
D15*
X172466000Y-101460000D03*
X174163056Y-97362944D03*
X174163056Y-100757056D03*
X174866000Y-99060000D03*
X170066000Y-123190000D03*
X170768944Y-121492944D03*
X170768944Y-124887056D03*
X172466000Y-120790000D03*
D16*
X172466000Y-123190000D03*
D15*
X172466000Y-125590000D03*
X174163056Y-121492944D03*
X174163056Y-124887056D03*
X174866000Y-123190000D03*
X143396000Y-123190000D03*
X144098944Y-121492944D03*
X144098944Y-124887056D03*
X145796000Y-120790000D03*
D16*
X145796000Y-123190000D03*
D15*
X145796000Y-125590000D03*
X147493056Y-121492944D03*
X147493056Y-124887056D03*
X148196000Y-123190000D03*
X143396000Y-99060000D03*
X144098944Y-97362944D03*
X144098944Y-100757056D03*
X145796000Y-96660000D03*
D16*
X145796000Y-99060000D03*
D15*
X145796000Y-101460000D03*
X147493056Y-97362944D03*
X147493056Y-100757056D03*
X148196000Y-99060000D03*
D17*
X173990000Y-108453000D03*
D18*
X173990000Y-110993000D03*
D19*
X152380000Y-112720500D03*
X152380000Y-110895500D03*
D20*
X148920000Y-109379500D03*
D21*
X148920000Y-111399500D03*
D22*
X148920000Y-112629500D03*
D20*
X148920000Y-110379500D03*
D21*
X148920000Y-108359500D03*
D22*
X148920000Y-107129500D03*
D23*
X148580000Y-105559500D03*
X144780000Y-105559500D03*
X148580000Y-114199500D03*
X144780000Y-114199500D03*
D24*
X152380000Y-107443000D03*
X152380000Y-109268000D03*
D25*
X155023500Y-112927500D03*
X156848500Y-112927500D03*
D19*
X167366000Y-119428000D03*
X167366000Y-117603000D03*
D26*
X159053500Y-110407500D03*
X159053500Y-110907500D03*
X159053500Y-111407500D03*
X159053500Y-111907500D03*
X159053500Y-112407500D03*
X159053500Y-112907500D03*
D27*
X159766000Y-113620000D03*
X160266000Y-113620000D03*
X160766000Y-113620000D03*
X161266000Y-113620000D03*
X161766000Y-113620000D03*
X162266000Y-113620000D03*
D26*
X162978500Y-112907500D03*
X162978500Y-112407500D03*
X162978500Y-111907500D03*
X162978500Y-111407500D03*
X162978500Y-110907500D03*
X162978500Y-110407500D03*
D27*
X162266000Y-109695000D03*
X161766000Y-109695000D03*
X161266000Y-109695000D03*
X160766000Y-109695000D03*
X160266000Y-109695000D03*
X159766000Y-109695000D03*
D28*
X161016000Y-111657500D03*
D19*
X171196000Y-110283000D03*
X171196000Y-108458000D03*
D29*
X166503500Y-113689500D03*
X168228500Y-113689500D03*
X166503500Y-110641500D03*
X168228500Y-110641500D03*
D30*
X156547000Y-105815500D03*
X158222000Y-105815500D03*
D31*
X160374000Y-97875000D03*
X160374000Y-99145000D03*
X160374000Y-100415000D03*
X160374000Y-101685000D03*
D32*
X163589000Y-99780000D03*
D33*
X165924000Y-97875000D03*
X165924000Y-99145000D03*
X165924000Y-100415000D03*
X165924000Y-101685000D03*
D19*
X171450000Y-115466500D03*
X171450000Y-113641500D03*
X154920000Y-123238000D03*
X154920000Y-121413000D03*
D34*
X158491000Y-124626500D03*
D35*
X161031000Y-124626500D03*
X163571000Y-124626500D03*
X163571000Y-117006500D03*
X161031000Y-117006500D03*
X158491000Y-117006500D03*
D29*
X164725500Y-107593500D03*
X166450500Y-107593500D03*
D19*
X161270000Y-106474000D03*
X161270000Y-104649000D03*
X154920000Y-119428000D03*
X154920000Y-117603000D03*
D31*
X152754000Y-97875000D03*
X152754000Y-99145000D03*
X152754000Y-100415000D03*
X152754000Y-101685000D03*
D32*
X155969000Y-99780000D03*
D33*
X158304000Y-97875000D03*
X158304000Y-99145000D03*
X158304000Y-100415000D03*
X158304000Y-101685000D03*
%LPD*%
M02*
